<svg xmlns="http://www.w3.org/2000/svg" xmlns:xlink="http://www.w3.org/1999/xlink" xmlns:lucid="lucid" width="1740" height="1205"><g transform="translate(-120 1226.4999500000001)" lucid:page-tab-id="0_0"><path d="M0-1258.84h1870.87V64H0z" fill="#fff"/><path d="M540-1174a6 6 0 0 1 6-6h348a6 6 0 0 1 6 6v234a6 6 0 0 1-6 6H546a6 6 0 0 1-6-6z" stroke="#3a414a" fill="#fff"/><path d="M540-1138.17h360M540-1023.2h360" stroke="#3a414a" fill="none"/><use xlink:href="#a" transform="matrix(1,0,0,1,548,-1172) translate(145.95833333333334 20.703993055555557)"/><use xlink:href="#b" transform="matrix(1,0,0,1,552,-1130.1753472222222) translate(0 31.37934027777778)"/><use xlink:href="#c" transform="matrix(1,0,0,1,552,-1130.1753472222222) translate(26.041666666666664 31.37934027777778)"/><use xlink:href="#d" transform="matrix(1,0,0,1,552,-1130.1753472222222) translate(130.20833333333331 31.37934027777778)"/><use xlink:href="#b" transform="matrix(1,0,0,1,552,-1130.1753472222222) translate(0 57.20399305555556)"/><use xlink:href="#e" transform="matrix(1,0,0,1,552,-1130.1753472222222) translate(26.041666666666664 57.20399305555556)"/><use xlink:href="#f" transform="matrix(1,0,0,1,552,-1130.1753472222222) translate(104.16666666666666 57.20399305555556)"/><use xlink:href="#b" transform="matrix(1,0,0,1,552,-1130.1753472222222) translate(0 83.02864583333333)"/><use xlink:href="#g" transform="matrix(1,0,0,1,552,-1130.1753472222222) translate(26.041666666666664 83.02864583333333)"/><use xlink:href="#h" transform="matrix(1,0,0,1,552,-1130.1753472222222) translate(195.3125 83.02864583333333)"/><use xlink:href="#b" transform="matrix(1,0,0,1,552,-1015.2013888888888) translate(0 31.791666666666668)"/><use xlink:href="#i" transform="matrix(1,0,0,1,552,-1015.2013888888888) translate(26.041666666666664 31.791666666666668)"/><use xlink:href="#b" transform="matrix(1,0,0,1,552,-1015.2013888888888) translate(0 57.61631944444444)"/><use xlink:href="#j" transform="matrix(1,0,0,1,552,-1015.2013888888888) translate(26.041666666666664 57.61631944444444)"/><use xlink:href="#k" transform="matrix(1,0,0,1,552,-1015.2013888888888) translate(260.41666666666674 57.61631944444444)"/><path d="M800-334a6 6 0 0 1 6-6h348a6 6 0 0 1 6 6v260a6 6 0 0 1-6 6H806a6 6 0 0 1-6-6z" stroke="#3a414a" fill="#fff"/><path d="M800-298.18h360M800-131.55h360" stroke="#3a414a" fill="none"/><use xlink:href="#l" transform="matrix(1,0,0,1,808,-332) translate(0 20.703993055555557)"/><use xlink:href="#m" transform="matrix(1,0,0,1,808,-332) translate(65.10416666666666 20.703993055555557)"/><use xlink:href="#b" transform="matrix(1,0,0,1,812,-290.17534722222223) translate(0 31.5546875)"/><use xlink:href="#n" transform="matrix(1,0,0,1,812,-290.17534722222223) translate(26.041666666666664 31.5546875)"/><use xlink:href="#o" transform="matrix(1,0,0,1,812,-290.17534722222223) translate(130.20833333333331 31.5546875)"/><use xlink:href="#b" transform="matrix(1,0,0,1,812,-290.17534722222223) translate(0 57.37934027777777)"/><use xlink:href="#p" transform="matrix(1,0,0,1,812,-290.17534722222223) translate(26.041666666666664 57.37934027777777)"/><use xlink:href="#o" transform="matrix(1,0,0,1,812,-290.17534722222223) translate(195.3125 57.37934027777777)"/><use xlink:href="#q" transform="matrix(1,0,0,1,812,-290.17534722222223) translate(0 83.20399305555554)"/><use xlink:href="#r" transform="matrix(1,0,0,1,812,-290.17534722222223) translate(26.041666666666664 83.20399305555554)"/><use xlink:href="#b" transform="matrix(1,0,0,1,812,-290.17534722222223) translate(0 109.02864583333333)"/><use xlink:href="#s" transform="matrix(1,0,0,1,812,-290.17534722222223) translate(26.041666666666664 109.02864583333333)"/><use xlink:href="#q" transform="matrix(1,0,0,1,812,-290.17534722222223) translate(0 134.8532986111111)"/><use xlink:href="#t" transform="matrix(1,0,0,1,812,-290.17534722222223) translate(26.041666666666664 134.8532986111111)"/><use xlink:href="#u" transform="matrix(1,0,0,1,812,-123.55208333333334) translate(0 31.703993055555557)"/><path d="M1480-1148.5a6 6 0 0 1 6-6h348a6 6 0 0 1 6 6v183a6 6 0 0 1-6 6h-348a6 6 0 0 1-6-6z" stroke="#3a414a" fill="#fff"/><path d="M1480-1112.67h360m-360 89.14h360" stroke="#3a414a" fill="none"/><use xlink:href="#v" transform="matrix(1,0,0,1,1488,-1146.5) translate(74.34375000000003 20.703993055555557)"/><use xlink:href="#w" transform="matrix(1,0,0,1,1488,-1146.5) translate(165.48958333333334 20.703993055555557)"/><use xlink:href="#b" transform="matrix(1,0,0,1,1492,-1104.6753472222222) translate(0 31.791666666666668)"/><use xlink:href="#n" transform="matrix(1,0,0,1,1492,-1104.6753472222222) translate(26.041666666666664 31.791666666666668)"/><use xlink:href="#o" transform="matrix(1,0,0,1,1492,-1104.6753472222222) translate(130.20833333333331 31.791666666666668)"/><use xlink:href="#b" transform="matrix(1,0,0,1,1492,-1104.6753472222222) translate(0 57.61631944444444)"/><use xlink:href="#p" transform="matrix(1,0,0,1,1492,-1104.6753472222222) translate(26.041666666666664 57.61631944444444)"/><use xlink:href="#x" transform="matrix(1,0,0,1,1492,-1104.6753472222222) translate(195.3125 57.61631944444444)"/><path d="M800-834a6 6 0 0 1 6-6h348a6 6 0 0 1 6 6v208a6 6 0 0 1-6 6H806a6 6 0 0 1-6-6z" stroke="#3a414a" fill="#fff"/><path d="M800-798.17h360M800-683.2h360" stroke="#3a414a" fill="none"/><use xlink:href="#y" transform="matrix(1,0,0,1,808,-832) translate(106.89583333333334 20.703993055555557)"/><use xlink:href="#z" transform="matrix(1,0,0,1,808,-832) translate(172 20.703993055555557)"/><use xlink:href="#q" transform="matrix(1,0,0,1,812,-790.1753472222222) translate(0 31.37934027777778)"/><use xlink:href="#r" transform="matrix(1,0,0,1,812,-790.1753472222222) translate(26.041666666666664 31.37934027777778)"/><use xlink:href="#b" transform="matrix(1,0,0,1,812,-790.1753472222222) translate(0 57.20399305555556)"/><use xlink:href="#s" transform="matrix(1,0,0,1,812,-790.1753472222222) translate(26.041666666666664 57.20399305555556)"/><use xlink:href="#q" transform="matrix(1,0,0,1,812,-790.1753472222222) translate(0 83.02864583333333)"/><use xlink:href="#t" transform="matrix(1,0,0,1,812,-790.1753472222222) translate(26.041666666666664 83.02864583333333)"/><use xlink:href="#A" transform="matrix(1,0,0,1,812,-675.2013888888888) translate(0 31.703993055555557)"/><path d="M1480-634a6 6 0 0 1 6-6h348a6 6 0 0 1 6 6v208a6 6 0 0 1-6 6h-348a6 6 0 0 1-6-6z" stroke="#3a414a" fill="#fff"/><path d="M1480-598.17h360M1480-483.2h360" stroke="#3a414a" fill="none"/><use xlink:href="#B" transform="matrix(1,0,0,1,1488,-632) translate(80.85416666666669 20.703993055555557)"/><use xlink:href="#C" transform="matrix(1,0,0,1,1488,-632) translate(211.0625 20.703993055555557)"/><use xlink:href="#b" transform="matrix(1,0,0,1,1492,-590.1753472222222) translate(0 31.37934027777778)"/><use xlink:href="#D" transform="matrix(1,0,0,1,1492,-590.1753472222222) translate(26.041666666666664 31.37934027777778)"/><use xlink:href="#b" transform="matrix(1,0,0,1,1492,-590.1753472222222) translate(0 57.20399305555556)"/><use xlink:href="#E" transform="matrix(1,0,0,1,1492,-590.1753472222222) translate(26.041666666666664 57.20399305555556)"/><use xlink:href="#F" transform="matrix(1,0,0,1,1492,-590.1753472222222) translate(117.18749999999997 57.20399305555556)"/><use xlink:href="#b" transform="matrix(1,0,0,1,1492,-590.1753472222222) translate(0 83.02864583333333)"/><use xlink:href="#G" transform="matrix(1,0,0,1,1492,-590.1753472222222) translate(26.041666666666664 83.02864583333333)"/><use xlink:href="#H" transform="matrix(1,0,0,1,1492,-590.1753472222222) translate(117.18749999999997 83.02864583333333)"/><g><use xlink:href="#I" transform="matrix(1,0,0,1,1492,-475.20138888888886) translate(0 31.703993055555557)"/></g><path d="M140-674a6 6 0 0 1 6-6h348a6 6 0 0 1 6 6v156a6 6 0 0 1-6 6H146a6 6 0 0 1-6-6z" stroke="#3a414a" fill="#fff"/><path d="M140-638.17h360m-360 63.32h360" stroke="#3a414a" fill="none"/><g><use xlink:href="#J" transform="matrix(1,0,0,1,148,-672) translate(119.91666666666669 20.703993055555557)"/></g><g><use xlink:href="#b" transform="matrix(1,0,0,1,152,-630.1753472222222) translate(11.749999999999972 31.703993055555557)"/><use xlink:href="#K" transform="matrix(1,0,0,1,152,-630.1753472222222) translate(37.791666666666636 31.703993055555557)"/></g><g><use xlink:href="#L" transform="matrix(1,0,0,1,152,-566.8506944444443) translate(50.81249999999997 31.703993055555557)"/></g><path d="M1660-958.5v301.62" stroke="#3a414a" fill="none"/><path d="M1660.5-958.5h-1v-.5h1z" stroke="#3a414a" stroke-width=".05" fill="#3a414a"/><path d="M1660-642.12l-4.63-14.26h9.27z" stroke="#3a414a" fill="#3a414a"/><g><use xlink:href="#M" transform="matrix(1,0,0,1,1617,-958.8000500000002) translate(0 14.4)"/></g><g><use xlink:href="#N" transform="matrix(1,0,0,1,1672.6352549156243,-662.2999500000001) translate(0 14.4)"/></g><path d="M1479-530h-153a6 6 0 0 1-6-6v-188a6 6 0 0 0-6-6h-123.13" stroke="#3a414a" fill="none"/><path d="M1479.5-529.5h-.5v-1h.5z" stroke="#3a414a" stroke-width=".05" fill="#3a414a"/><path d="M1161.2-730l14.86-14.85L1191.2-730l-15.14 14.85z" stroke="#3a414a" fill="#fff"/><g><use xlink:href="#O" transform="matrix(1,0,0,1,1452.0000499999999,-555.5999999999999) translate(0 14.4)"/></g><g><use xlink:href="#O" transform="matrix(1,0,0,1,1160.9999500000001,-710.4999999999999) translate(0 14.4)"/></g><path d="M980-619v248.13" stroke="#3a414a" fill="none"/><path d="M980.5-619h-1v-.5h1z" stroke="#3a414a" stroke-width=".05" fill="#3a414a"/><path d="M980-341.2l-14.85-14.86L980-371.2l14.85 15.14z" stroke="#3a414a" fill="#fff"/><path d="M320-681v-370a6 6 0 0 1 6-6h197.12" stroke="#3a414a" fill="none"/><path d="M320.5-680.5h-1v-.5h1z" stroke="#3a414a" stroke-width=".05" fill="#3a414a"/><path d="M537.88-1057l-14.26 4.63v-9.27z" stroke="#3a414a" fill="#3a414a"/><path d="M980-67v33.5a6 6 0 0 1-6 6H326a6 6 0 0 1-6-6v-461.62" stroke="#3a414a" fill="none"/><path d="M980.5-67h-1v-.5h1z" stroke="#3a414a" stroke-width=".05" fill="#3a414a"/><path d="M320-509.88l4.63 14.26h-9.26z" stroke="#3a414a" fill="#3a414a"/><path d="M799-204h-73a6 6 0 0 1-6-6v-707.12" stroke="#3a414a" fill="none"/><path d="M799.5-203.5h-.5v-1h.5z" stroke="#3a414a" stroke-width=".05" fill="#3a414a"/><path d="M720-931.88l4.63 14.26h-9.26z" stroke="#3a414a" fill="#3a414a"/><path d="M720-1181v-33.5a6 6 0 0 1 6-6h928a6 6 0 0 1 6 6v43.12" stroke="#3a414a" fill="none"/><path d="M720.5-1180.5h-1v-.5h1z" stroke="#3a414a" stroke-width=".05" fill="#3a414a"/><path d="M1660-1156.62l-4.63-14.26h9.27z" stroke="#3a414a" fill="#3a414a"/><g><use xlink:href="#P" transform="matrix(1,0,0,1,728,-1202.29995) translate(0 14.4)"/></g><g><use xlink:href="#N" transform="matrix(1,0,0,1,1672.6352549156243,-1176.7999499999999) translate(0 14.4)"/></g><path d="M980-841v-210a6 6 0 0 0-6-6h-57.12" stroke="#3a414a" fill="none"/><path d="M980.5-840.5h-1v-.5h1z" stroke="#3a414a" stroke-width=".05" fill="#3a414a"/><path d="M902.12-1057l14.26-4.63v9.27z" stroke="#3a414a" fill="#3a414a"/><path d="M1660-419v209a6 6 0 0 1-6 6h-477.12" stroke="#3a414a" fill="none"/><path d="M1660.5-419h-1v-.5h1z" stroke="#3a414a" stroke-width=".05" fill="#3a414a"/><path d="M1162.12-204l14.26-4.63v9.26z" stroke="#3a414a" fill="#3a414a"/><defs><path fill="#3a414a" d="M774-204C745-71 650 19 496 20c-227 1-350-147-350-380v-700h212v700c-1 122 75 191 198 190 180-7 234-116 234-320l54 286h-70zm34 214c-11-142-22-283-18-440h212v238l146 22V0zm-18-310v-760h212v700" id="Q"/><path fill="#3a414a" d="M994-876c-155-17-412-26-522 16-53 20-80 54-80 100 6 78 60 82 134 104 229 69 521 71 518 350 0 114-42 196-125 248S702 20 518 20c-146 0-251-6-362-30l24-192c169 29 429 50 572 0 74-26 93-117 46-172-17-16-43-26-78-36-152-41-380-81-474-161-49-39-74-99-74-179 0-116 47-196 134-252 124-80 489-95 710-58" id="R"/><path fill="#3a414a" d="M1002-8C898 13 800 19 692 20c-357 2-566-196-566-552 0-328 162-548 478-548 347 0 489 269 444 644H304v-162h558c3-178-87-295-256-296-193 2-286 146-284 352-1 247 146 377 394 376 95 0 177-12 260-28" id="S"/><path fill="#3a414a" d="M942-682c-2-136-26-213-146-218-90 0-158 39-202 116s-66 186-66 328l-62-332h82c12-195 109-292 292-292 241 0 310 139 312 398H942zM80 0v-186h708V0H80zm236 0v-1060h172l40 304V0H316zM120-874v-186h354l20 186H120" id="T"/><g id="a"><use transform="matrix(0.010850694444444444,0,0,0.010850694444444444,0,0)" xlink:href="#Q"/><use transform="matrix(0.010850694444444444,0,0,0.010850694444444444,13.020833333333332,0)" xlink:href="#R"/><use transform="matrix(0.010850694444444444,0,0,0.010850694444444444,26.041666666666664,0)" xlink:href="#S"/><use transform="matrix(0.010850694444444444,0,0,0.010850694444444444,39.0625,0)" xlink:href="#T"/></g><path fill="#3a414a" d="M494-190v-1038h212v1038H494zM100-617v-186h1000v186H100" id="U"/><use transform="matrix(0.010850694444444444,0,0,0.010850694444444444,0,0)" xlink:href="#U" id="b"/><path fill="#3a414a" d="M495 0v-1420h208V0H495zM168 0v-190h864V0H168zm0-1230v-190h864v190H168" id="V"/><path fill="#3a414a" d="M800-192C787-55 674 22 519 20 216 16 95-195 96-520c-1-333 116-554 423-560 154-2 265 77 281 212h82l-62 302c1-199-70-334-254-334-196 0-260 161-260 380 0 212 68 360 260 360 184 0 255-136 254-334l72 302h-92zm42 202l-22-208v-1302h212V0" id="W"/><path fill="#3a414a" d="M748-932c0 79-68 148-148 148-79 0-148-69-148-148 0-80 69-148 148-148 80 0 148 68 148 148zm0 804c0 79-68 148-148 148-79 0-148-69-148-148 0-80 69-148 148-148 80 0 148 68 148 148" id="X"/><g id="c"><use transform="matrix(0.010850694444444444,0,0,0.010850694444444444,0,0)" xlink:href="#Q"/><use transform="matrix(0.010850694444444444,0,0,0.010850694444444444,13.020833333333332,0)" xlink:href="#R"/><use transform="matrix(0.010850694444444444,0,0,0.010850694444444444,26.041666666666664,0)" xlink:href="#S"/><use transform="matrix(0.010850694444444444,0,0,0.010850694444444444,39.0625,0)" xlink:href="#T"/><use transform="matrix(0.010850694444444444,0,0,0.010850694444444444,52.08333333333333,0)" xlink:href="#V"/><use transform="matrix(0.010850694444444444,0,0,0.010850694444444444,65.10416666666666,0)" xlink:href="#W"/><use transform="matrix(0.010850694444444444,0,0,0.010850694444444444,78.12499999999999,0)" xlink:href="#X"/></g><path fill="#3a414a" d="M564 0v-1000h212V0H564zM160 0v-186h424V0H160zm596 0v-186h346V0H756zM220-874v-186h556v186H220zm591-502c0 79-68 148-148 148-79 0-148-69-148-148 0-80 69-148 148-148 80 0 148 68 148 148" id="Y"/><path fill="#3a414a" d="M680-1080c231-1 352 153 352 390V0H820v-690c1-124-68-200-190-200-167 0-250 98-250 294l-62-272h82c14-150 111-212 280-212zM168 0v-1060h192l20 224V0H168" id="Z"/><path fill="#3a414a" d="M1070-4c-92 15-173 24-278 24-314-2-452-115-456-420v-180h212v170c2 176 82 239 264 240 83 0 151-10 234-20zM336-500v-880h212v880H336zM70-874v-186h960v186H70" id="aa"/><g id="d"><use transform="matrix(0.010850694444444444,0,0,0.010850694444444444,0,0)" xlink:href="#Y"/><use transform="matrix(0.010850694444444444,0,0,0.010850694444444444,13.020833333333332,0)" xlink:href="#Z"/><use transform="matrix(0.010850694444444444,0,0,0.010850694444444444,26.041666666666664,0)" xlink:href="#aa"/></g><path fill="#3a414a" d="M818 10l-14-314-28-88c-12-161 36-360-74-430-98-62-314-51-476-60l20-188 214 3c324 4 518 127 518 433v442l180 22V0zm-30-266C784-59 645 18 444 20 234 22 96-84 96-286c5-249 208-350 480-348 120 0 219 13 302 46l-44 144c-84-20-164-19-262-20-184 0-276 56-276 168 1 100 75 147 182 146 169-1 286-79 298-230v-116l62 272h-84" id="ab"/><path fill="#3a414a" d="M878-1080c158 3 209 84 210 250V0H876v-810c0-73-27-110-82-110-69 0-104 48-104 144l-72-152h82c8-87 74-156 178-152zM112 0v-1060h188l24 224V0H112zm400-1080c124 3 178 92 178 230V0H510v-830c0-60-28-90-84-90-68 0-102 48-102 144l-62-152h68c8-101 69-152 182-152" id="ac"/><g id="e"><use transform="matrix(0.010850694444444444,0,0,0.010850694444444444,0,0)" xlink:href="#Z"/><use transform="matrix(0.010850694444444444,0,0,0.010850694444444444,13.020833333333332,0)" xlink:href="#ab"/><use transform="matrix(0.010850694444444444,0,0,0.010850694444444444,26.041666666666664,0)" xlink:href="#ac"/><use transform="matrix(0.010850694444444444,0,0,0.010850694444444444,39.0625,0)" xlink:href="#S"/><use transform="matrix(0.010850694444444444,0,0,0.010850694444444444,52.08333333333333,0)" xlink:href="#X"/></g><path fill="#3a414a" d="M182 478l-10-194c205-16 477 24 574-99 46-58 73-138 74-247v-774l20-224h192v966c-3 384-165 548-540 562zm618-670C787-55 674 22 519 20 216 16 95-195 96-520c-1-333 116-554 423-560 158-2 274 75 291 212h82l-72 302c1-199-70-334-254-334-196 0-260 161-260 380 0 212 68 360 260 360 184 0 255-136 254-334l72 302h-92" id="ad"/><g id="f"><use transform="matrix(0.010850694444444444,0,0,0.010850694444444444,0,0)" xlink:href="#R"/><use transform="matrix(0.010850694444444444,0,0,0.010850694444444444,13.020833333333332,0)" xlink:href="#aa"/><use transform="matrix(0.010850694444444444,0,0,0.010850694444444444,26.041666666666664,0)" xlink:href="#T"/><use transform="matrix(0.010850694444444444,0,0,0.010850694444444444,39.0625,0)" xlink:href="#Y"/><use transform="matrix(0.010850694444444444,0,0,0.010850694444444444,52.08333333333333,0)" xlink:href="#Z"/><use transform="matrix(0.010850694444444444,0,0,0.010850694444444444,65.10416666666666,0)" xlink:href="#ad"/></g><path fill="#3a414a" d="M168 460v-1520h192l20 224V460H168zm936-980c1 325-119 535-423 540-155 2-268-75-281-212h-92l72-302c-1 199 70 334 254 334 192 0 261-149 260-360 0-220-64-380-260-380-184 0-255 136-254 334l-72-302h82c18-136 132-214 291-212 308 6 424 227 423 560" id="ae"/><path fill="#3a414a" d="M680-1080c231-1 352 153 352 390V0H820v-690c2-128-66-210-190-210-167 0-250 101-250 304l-62-272h82c14-150 111-212 280-212zM168 0v-1500h212V0H168" id="af"/><path fill="#3a414a" d="M1064-530c0 326-153 549-464 550-310-1-464-224-464-550 0-327 154-549 464-550 311 1 464 223 464 550zm-708 0c-1 200 66 360 244 360s245-161 244-360c1-201-65-360-244-360S355-730 356-530" id="ag"/><path fill="#3a414a" d="M784 0L376-1080h-92v-340h132L824-340h50V0h-90zM148 0v-1420h208V0H148zm696 0v-1420h208V0H844" id="ah"/><path fill="#3a414a" d="M1099-600c0 398-248 624-652 620-101 0-192-9-284-20l82-194c64 33 153 33 244 34 262 1 403-171 400-440 2-177-77-299-244-300-180 0-270 101-270 304l-62-272h82c10-141 97-212 260-212 289-1 444 184 444 480zM163 0v-1500h212V-18" id="ai"/><g id="g"><use transform="matrix(0.010850694444444444,0,0,0.010850694444444444,0,0)" xlink:href="#ae"/><use transform="matrix(0.010850694444444444,0,0,0.010850694444444444,13.020833333333332,0)" xlink:href="#af"/><use transform="matrix(0.010850694444444444,0,0,0.010850694444444444,26.041666666666664,0)" xlink:href="#ag"/><use transform="matrix(0.010850694444444444,0,0,0.010850694444444444,39.0625,0)" xlink:href="#Z"/><use transform="matrix(0.010850694444444444,0,0,0.010850694444444444,52.08333333333333,0)" xlink:href="#S"/><use transform="matrix(0.010850694444444444,0,0,0.010850694444444444,65.10416666666666,0)" xlink:href="#ah"/><use transform="matrix(0.010850694444444444,0,0,0.010850694444444444,78.12499999999999,0)" xlink:href="#Q"/><use transform="matrix(0.010850694444444444,0,0,0.010850694444444444,91.14583333333331,0)" xlink:href="#ac"/><use transform="matrix(0.010850694444444444,0,0,0.010850694444444444,104.16666666666664,0)" xlink:href="#ai"/><use transform="matrix(0.010850694444444444,0,0,0.010850694444444444,117.18749999999997,0)" xlink:href="#S"/><use transform="matrix(0.010850694444444444,0,0,0.010850694444444444,130.20833333333331,0)" xlink:href="#T"/><use transform="matrix(0.010850694444444444,0,0,0.010850694444444444,143.22916666666666,0)" xlink:href="#X"/></g><g id="h"><use transform="matrix(0.010850694444444444,0,0,0.010850694444444444,0,0)" xlink:href="#Y"/><use transform="matrix(0.010850694444444444,0,0,0.010850694444444444,13.020833333333332,0)" xlink:href="#Z"/><use transform="matrix(0.010850694444444444,0,0,0.010850694444444444,26.041666666666664,0)" xlink:href="#aa"/></g><path fill="#3a414a" d="M45 0l410-1420h290L1155 0H945L609-1248h-18L255 0H45zm190-346v-190h720v190H235" id="aj"/><path fill="#3a414a" d="M1060-456c1 313-156 476-464 476-304 0-456-159-456-476v-964h208v964c1 183 72 285 252 286 168 0 252-95 252-286v-964h208v964" id="ak"/><path fill="#3a414a" d="M924-690c1-336-124-535-440-540H338l-24-190h170c433 0 650 243 650 730C1134-230 917 0 484 0H334v-190h150c306-2 441-182 440-500zM140 0v-1420h208V0H140" id="al"/><path fill="#3a414a" d="M1074-22C971 6 883 20 758 20c-264-4-348-143-348-420v-1100h212v1090c-4 166 46 246 216 240 55 0 126-13 212-38zM98-1314v-186h330v186H98" id="am"/><path fill="#3a414a" d="M998 200c-250 9-421-69-552-240-120-160-180-385-180-676 0-287 60-510 180-668 131-169 302-245 552-236v180c-179-6-301 57-394 190-86 127-128 305-128 534 0 233 42 414 128 543C697-38 819 26 998 20v180" id="an"/><path fill="#3a414a" d="M202 200V20c179 6 301-58 394-193 86-129 128-310 128-543 0-229-42-407-128-534-93-133-215-196-394-190v-180c250-9 422 67 553 236 119 158 179 381 179 668 0 291-60 516-179 676-130 171-303 249-553 240" id="ao"/><g id="i"><use transform="matrix(0.010850694444444444,0,0,0.010850694444444444,0,0)" xlink:href="#aj"/><use transform="matrix(0.010850694444444444,0,0,0.010850694444444444,13.020833333333332,0)" xlink:href="#W"/><use transform="matrix(0.010850694444444444,0,0,0.010850694444444444,26.041666666666664,0)" xlink:href="#W"/><use transform="matrix(0.010850694444444444,0,0,0.010850694444444444,39.0625,0)" xlink:href="#ak"/><use transform="matrix(0.010850694444444444,0,0,0.010850694444444444,52.08333333333333,0)" xlink:href="#R"/><use transform="matrix(0.010850694444444444,0,0,0.010850694444444444,65.10416666666666,0)" xlink:href="#S"/><use transform="matrix(0.010850694444444444,0,0,0.010850694444444444,78.12499999999999,0)" xlink:href="#T"/><use transform="matrix(0.010850694444444444,0,0,0.010850694444444444,91.14583333333331,0)" xlink:href="#al"/><use transform="matrix(0.010850694444444444,0,0,0.010850694444444444,104.16666666666664,0)" xlink:href="#S"/><use transform="matrix(0.010850694444444444,0,0,0.010850694444444444,117.18749999999997,0)" xlink:href="#aa"/><use transform="matrix(0.010850694444444444,0,0,0.010850694444444444,130.20833333333331,0)" xlink:href="#ab"/><use transform="matrix(0.010850694444444444,0,0,0.010850694444444444,143.22916666666666,0)" xlink:href="#Y"/><use transform="matrix(0.010850694444444444,0,0,0.010850694444444444,156.25,0)" xlink:href="#am"/><use transform="matrix(0.010850694444444444,0,0,0.010850694444444444,169.27083333333334,0)" xlink:href="#R"/><use transform="matrix(0.010850694444444444,0,0,0.010850694444444444,182.29166666666669,0)" xlink:href="#an"/><use transform="matrix(0.010850694444444444,0,0,0.010850694444444444,195.31250000000003,0)" xlink:href="#ao"/></g><path fill="#3a414a" d="M1090-990c2 286-173 450-462 450H334v-190h294c155 2 253-87 252-240 2-163-92-261-252-260H338l-24-190h314c285-3 463 150 462 430zM140 0v-1420h208V0H140zm762 0L584-668h220L1142 0H902" id="ap"/><path fill="#3a414a" d="M459 0L80-1060h226l285 880h18l285-880h226L741 0H459" id="aq"/><g id="j"><use transform="matrix(0.010850694444444444,0,0,0.010850694444444444,0,0)" xlink:href="#ap"/><use transform="matrix(0.010850694444444444,0,0,0.010850694444444444,13.020833333333332,0)" xlink:href="#S"/><use transform="matrix(0.010850694444444444,0,0,0.010850694444444444,26.041666666666664,0)" xlink:href="#ac"/><use transform="matrix(0.010850694444444444,0,0,0.010850694444444444,39.0625,0)" xlink:href="#ag"/><use transform="matrix(0.010850694444444444,0,0,0.010850694444444444,52.08333333333333,0)" xlink:href="#aq"/><use transform="matrix(0.010850694444444444,0,0,0.010850694444444444,65.10416666666666,0)" xlink:href="#S"/><use transform="matrix(0.010850694444444444,0,0,0.010850694444444444,78.12499999999999,0)" xlink:href="#ak"/><use transform="matrix(0.010850694444444444,0,0,0.010850694444444444,91.14583333333331,0)" xlink:href="#R"/><use transform="matrix(0.010850694444444444,0,0,0.010850694444444444,104.16666666666664,0)" xlink:href="#S"/><use transform="matrix(0.010850694444444444,0,0,0.010850694444444444,117.18749999999997,0)" xlink:href="#T"/><use transform="matrix(0.010850694444444444,0,0,0.010850694444444444,130.20833333333331,0)" xlink:href="#al"/><use transform="matrix(0.010850694444444444,0,0,0.010850694444444444,143.22916666666666,0)" xlink:href="#S"/><use transform="matrix(0.010850694444444444,0,0,0.010850694444444444,156.25,0)" xlink:href="#aa"/><use transform="matrix(0.010850694444444444,0,0,0.010850694444444444,169.27083333333334,0)" xlink:href="#ab"/><use transform="matrix(0.010850694444444444,0,0,0.010850694444444444,182.29166666666669,0)" xlink:href="#Y"/><use transform="matrix(0.010850694444444444,0,0,0.010850694444444444,195.31250000000003,0)" xlink:href="#am"/><use transform="matrix(0.010850694444444444,0,0,0.010850694444444444,208.33333333333337,0)" xlink:href="#R"/></g><g id="k"><use transform="matrix(0.010850694444444444,0,0,0.010850694444444444,0,0)" xlink:href="#an"/><use transform="matrix(0.010850694444444444,0,0,0.010850694444444444,13.020833333333332,0)" xlink:href="#ao"/></g><path fill="#3a414a" d="M1134-390C1135-135 967 0 704 0H354v-190h292c163 2 277-76 278-230-1-161-120-235-292-235H358l-24-91h348c263-3 449 110 452 356zM160 0v-1420h208V0H160zm126-698v-98h408v98H286zm748-362c0 220-187 306-430 306H354v-91h232c140 1 238-62 238-195-2-135-106-190-252-190H358l-24-190h248c265-2 452 111 452 360" id="ar"/><path fill="#3a414a" d="M430-592c306 2 383-189 422-468h220c-28 221-90 385-188 494S651-402 480-402H310v-190h120zM160 0v-1500h212V0H160zm718 0L576-516l200-82L1140 0H878" id="as"/><g id="l"><use transform="matrix(0.010850694444444444,0,0,0.010850694444444444,0,0)" xlink:href="#ar"/><use transform="matrix(0.010850694444444444,0,0,0.010850694444444444,13.020833333333332,0)" xlink:href="#ag"/><use transform="matrix(0.010850694444444444,0,0,0.010850694444444444,26.041666666666664,0)" xlink:href="#ag"/><use transform="matrix(0.010850694444444444,0,0,0.010850694444444444,39.0625,0)" xlink:href="#as"/></g><path fill="#3a414a" d="M496 0v-1420h208V0H496zM80-1230v-190h1040v190H80" id="at"/><path fill="#3a414a" d="M1042-10C941 13 821 19 702 20c-357 2-566-196-566-552 0-343 194-551 538-548 203-1 362 80 423 220L934-737c-52-86-142-151-268-153-206 0-318 135-316 348-1 240 136 373 376 372 102 0 203-11 292-26" id="au"/><g id="m"><use transform="matrix(0.010850694444444444,0,0,0.010850694444444444,0,0)" xlink:href="#at"/><use transform="matrix(0.010850694444444444,0,0,0.010850694444444444,13.020833333333332,0)" xlink:href="#Y"/><use transform="matrix(0.010850694444444444,0,0,0.010850694444444444,26.041666666666664,0)" xlink:href="#au"/><use transform="matrix(0.010850694444444444,0,0,0.010850694444444444,39.0625,0)" xlink:href="#as"/><use transform="matrix(0.010850694444444444,0,0,0.010850694444444444,52.08333333333333,0)" xlink:href="#S"/><use transform="matrix(0.010850694444444444,0,0,0.010850694444444444,65.10416666666666,0)" xlink:href="#aa"/></g><g id="n"><use transform="matrix(0.010850694444444444,0,0,0.010850694444444444,0,0)" xlink:href="#R"/><use transform="matrix(0.010850694444444444,0,0,0.010850694444444444,13.020833333333332,0)" xlink:href="#ag"/><use transform="matrix(0.010850694444444444,0,0,0.010850694444444444,26.041666666666664,0)" xlink:href="#Q"/><use transform="matrix(0.010850694444444444,0,0,0.010850694444444444,39.0625,0)" xlink:href="#T"/><use transform="matrix(0.010850694444444444,0,0,0.010850694444444444,52.08333333333333,0)" xlink:href="#au"/><use transform="matrix(0.010850694444444444,0,0,0.010850694444444444,65.10416666666666,0)" xlink:href="#S"/><use transform="matrix(0.010850694444444444,0,0,0.010850694444444444,78.12499999999999,0)" xlink:href="#X"/></g><g id="o"><use transform="matrix(0.010850694444444444,0,0,0.010850694444444444,0,0)" xlink:href="#au"/><use transform="matrix(0.010850694444444444,0,0,0.010850694444444444,13.020833333333332,0)" xlink:href="#af"/><use transform="matrix(0.010850694444444444,0,0,0.010850694444444444,26.041666666666664,0)" xlink:href="#ab"/><use transform="matrix(0.010850694444444444,0,0,0.010850694444444444,39.0625,0)" xlink:href="#T"/></g><g id="p"><use transform="matrix(0.010850694444444444,0,0,0.010850694444444444,0,0)" xlink:href="#W"/><use transform="matrix(0.010850694444444444,0,0,0.010850694444444444,13.020833333333332,0)" xlink:href="#S"/><use transform="matrix(0.010850694444444444,0,0,0.010850694444444444,26.041666666666664,0)" xlink:href="#R"/><use transform="matrix(0.010850694444444444,0,0,0.010850694444444444,39.0625,0)" xlink:href="#aa"/><use transform="matrix(0.010850694444444444,0,0,0.010850694444444444,52.08333333333333,0)" xlink:href="#Y"/><use transform="matrix(0.010850694444444444,0,0,0.010850694444444444,65.10416666666666,0)" xlink:href="#Z"/><use transform="matrix(0.010850694444444444,0,0,0.010850694444444444,78.12499999999999,0)" xlink:href="#ab"/><use transform="matrix(0.010850694444444444,0,0,0.010850694444444444,91.14583333333331,0)" xlink:href="#aa"/><use transform="matrix(0.010850694444444444,0,0,0.010850694444444444,104.16666666666664,0)" xlink:href="#Y"/><use transform="matrix(0.010850694444444444,0,0,0.010850694444444444,117.18749999999997,0)" xlink:href="#ag"/><use transform="matrix(0.010850694444444444,0,0,0.010850694444444444,130.20833333333331,0)" xlink:href="#Z"/><use transform="matrix(0.010850694444444444,0,0,0.010850694444444444,143.22916666666666,0)" xlink:href="#X"/></g><use transform="matrix(0.010850694444444444,0,0,0.010850694444444444,0,0)" xlink:href="#U" id="q"/><g id="r"><use transform="matrix(0.010850694444444444,0,0,0.010850694444444444,0,0)" xlink:href="#W"/><use transform="matrix(0.010850694444444444,0,0,0.010850694444444444,13.020833333333332,0)" xlink:href="#ab"/><use transform="matrix(0.010850694444444444,0,0,0.010850694444444444,26.041666666666664,0)" xlink:href="#aa"/><use transform="matrix(0.010850694444444444,0,0,0.010850694444444444,39.0625,0)" xlink:href="#S"/><use transform="matrix(0.010850694444444444,0,0,0.010850694444444444,52.08333333333333,0)" xlink:href="#X"/><use transform="matrix(0.010850694444444444,0,0,0.010850694444444444,65.10416666666666,0)" xlink:href="#W"/><use transform="matrix(0.010850694444444444,0,0,0.010850694444444444,78.12499999999999,0)" xlink:href="#ab"/><use transform="matrix(0.010850694444444444,0,0,0.010850694444444444,91.14583333333331,0)" xlink:href="#aa"/><use transform="matrix(0.010850694444444444,0,0,0.010850694444444444,104.16666666666664,0)" xlink:href="#S"/></g><g id="s"><use transform="matrix(0.010850694444444444,0,0,0.010850694444444444,0,0)" xlink:href="#aa"/><use transform="matrix(0.010850694444444444,0,0,0.010850694444444444,13.020833333333332,0)" xlink:href="#Y"/><use transform="matrix(0.010850694444444444,0,0,0.010850694444444444,26.041666666666664,0)" xlink:href="#ac"/><use transform="matrix(0.010850694444444444,0,0,0.010850694444444444,39.0625,0)" xlink:href="#S"/><use transform="matrix(0.010850694444444444,0,0,0.010850694444444444,52.08333333333333,0)" xlink:href="#X"/><use transform="matrix(0.010850694444444444,0,0,0.010850694444444444,65.10416666666666,0)" xlink:href="#aa"/><use transform="matrix(0.010850694444444444,0,0,0.010850694444444444,78.12499999999999,0)" xlink:href="#Y"/><use transform="matrix(0.010850694444444444,0,0,0.010850694444444444,91.14583333333331,0)" xlink:href="#ac"/><use transform="matrix(0.010850694444444444,0,0,0.010850694444444444,104.16666666666664,0)" xlink:href="#S"/></g><path fill="#3a414a" d="M75 480L65 290c125-16 260-21 345-77 118-74 173-194 221-357l264-916h220L809-94c-98 302-212 514-554 554zM477 0L55-1060h220l346 900h32V0H477" id="av"/><g id="t"><use transform="matrix(0.010850694444444444,0,0,0.010850694444444444,0,0)" xlink:href="#W"/><use transform="matrix(0.010850694444444444,0,0,0.010850694444444444,13.020833333333332,0)" xlink:href="#ab"/><use transform="matrix(0.010850694444444444,0,0,0.010850694444444444,26.041666666666664,0)" xlink:href="#av"/><use transform="matrix(0.010850694444444444,0,0,0.010850694444444444,39.0625,0)" xlink:href="#X"/><use transform="matrix(0.010850694444444444,0,0,0.010850694444444444,52.08333333333333,0)" xlink:href="#W"/><use transform="matrix(0.010850694444444444,0,0,0.010850694444444444,65.10416666666666,0)" xlink:href="#ab"/><use transform="matrix(0.010850694444444444,0,0,0.010850694444444444,78.12499999999999,0)" xlink:href="#av"/></g><g id="u"><use transform="matrix(0.010850694444444444,0,0,0.010850694444444444,0,0)" xlink:href="#ai"/><use transform="matrix(0.010850694444444444,0,0,0.010850694444444444,13.020833333333332,0)" xlink:href="#ag"/><use transform="matrix(0.010850694444444444,0,0,0.010850694444444444,26.041666666666664,0)" xlink:href="#ag"/><use transform="matrix(0.010850694444444444,0,0,0.010850694444444444,39.0625,0)" xlink:href="#as"/><use transform="matrix(0.010850694444444444,0,0,0.010850694444444444,52.08333333333333,0)" xlink:href="#at"/><use transform="matrix(0.010850694444444444,0,0,0.010850694444444444,65.10416666666666,0)" xlink:href="#Y"/><use transform="matrix(0.010850694444444444,0,0,0.010850694444444444,78.12499999999999,0)" xlink:href="#au"/><use transform="matrix(0.010850694444444444,0,0,0.010850694444444444,91.14583333333331,0)" xlink:href="#as"/><use transform="matrix(0.010850694444444444,0,0,0.010850694444444444,104.16666666666664,0)" xlink:href="#S"/><use transform="matrix(0.010850694444444444,0,0,0.010850694444444444,117.18749999999997,0)" xlink:href="#aa"/><use transform="matrix(0.010850694444444444,0,0,0.010850694444444444,130.20833333333331,0)" xlink:href="#an"/><use transform="matrix(0.010850694444444444,0,0,0.010850694444444444,143.22916666666666,0)" xlink:href="#ao"/></g><g id="v"><use transform="matrix(0.010850694444444444,0,0,0.010850694444444444,0,0)" xlink:href="#R"/><use transform="matrix(0.010850694444444444,0,0,0.010850694444444444,13.020833333333332,0)" xlink:href="#S"/><use transform="matrix(0.010850694444444444,0,0,0.010850694444444444,26.041666666666664,0)" xlink:href="#am"/><use transform="matrix(0.010850694444444444,0,0,0.010850694444444444,39.0625,0)" xlink:href="#S"/><use transform="matrix(0.010850694444444444,0,0,0.010850694444444444,52.08333333333333,0)" xlink:href="#au"/><use transform="matrix(0.010850694444444444,0,0,0.010850694444444444,65.10416666666666,0)" xlink:href="#aa"/></g><path fill="#3a414a" d="M160 0v-1420h208V0H160zm0 0v-190h940V0H160" id="aw"/><g id="w"><use transform="matrix(0.010850694444444444,0,0,0.010850694444444444,0,0)" xlink:href="#aw"/><use transform="matrix(0.010850694444444444,0,0,0.010850694444444444,13.020833333333332,0)" xlink:href="#ag"/><use transform="matrix(0.010850694444444444,0,0,0.010850694444444444,26.041666666666664,0)" xlink:href="#au"/><use transform="matrix(0.010850694444444444,0,0,0.010850694444444444,39.0625,0)" xlink:href="#ab"/><use transform="matrix(0.010850694444444444,0,0,0.010850694444444444,52.08333333333333,0)" xlink:href="#aa"/><use transform="matrix(0.010850694444444444,0,0,0.010850694444444444,65.10416666666666,0)" xlink:href="#Y"/><use transform="matrix(0.010850694444444444,0,0,0.010850694444444444,78.12499999999999,0)" xlink:href="#ag"/><use transform="matrix(0.010850694444444444,0,0,0.010850694444444444,91.14583333333331,0)" xlink:href="#Z"/></g><g id="x"><use transform="matrix(0.010850694444444444,0,0,0.010850694444444444,0,0)" xlink:href="#au"/><use transform="matrix(0.010850694444444444,0,0,0.010850694444444444,13.020833333333332,0)" xlink:href="#af"/><use transform="matrix(0.010850694444444444,0,0,0.010850694444444444,26.041666666666664,0)" xlink:href="#ab"/><use transform="matrix(0.010850694444444444,0,0,0.010850694444444444,39.0625,0)" xlink:href="#T"/></g><g id="y"><use transform="matrix(0.010850694444444444,0,0,0.010850694444444444,0,0)" xlink:href="#at"/><use transform="matrix(0.010850694444444444,0,0,0.010850694444444444,13.020833333333332,0)" xlink:href="#Y"/><use transform="matrix(0.010850694444444444,0,0,0.010850694444444444,26.041666666666664,0)" xlink:href="#ac"/><use transform="matrix(0.010850694444444444,0,0,0.010850694444444444,39.0625,0)" xlink:href="#S"/></g><g id="z"><use transform="matrix(0.010850694444444444,0,0,0.010850694444444444,0,0)" xlink:href="#aa"/><use transform="matrix(0.010850694444444444,0,0,0.010850694444444444,13.020833333333332,0)" xlink:href="#ab"/><use transform="matrix(0.010850694444444444,0,0,0.010850694444444444,26.041666666666664,0)" xlink:href="#ai"/><use transform="matrix(0.010850694444444444,0,0,0.010850694444444444,39.0625,0)" xlink:href="#am"/><use transform="matrix(0.010850694444444444,0,0,0.010850694444444444,52.08333333333333,0)" xlink:href="#S"/></g><path fill="#3a414a" d="M720 0L596-842h-16l-87-218h194l125 900h18l90-900h210L980 0H720zM190 0L70-1060h200l80 900h18l125-900h194l-89 218h-14L460 0H190" id="ax"/><g id="A"><use transform="matrix(0.010850694444444444,0,0,0.010850694444444444,0,0)" xlink:href="#R"/><use transform="matrix(0.010850694444444444,0,0,0.010850694444444444,13.020833333333332,0)" xlink:href="#af"/><use transform="matrix(0.010850694444444444,0,0,0.010850694444444444,26.041666666666664,0)" xlink:href="#ag"/><use transform="matrix(0.010850694444444444,0,0,0.010850694444444444,39.0625,0)" xlink:href="#ax"/><use transform="matrix(0.010850694444444444,0,0,0.010850694444444444,52.08333333333333,0)" xlink:href="#at"/><use transform="matrix(0.010850694444444444,0,0,0.010850694444444444,65.10416666666666,0)" xlink:href="#Y"/><use transform="matrix(0.010850694444444444,0,0,0.010850694444444444,78.12499999999999,0)" xlink:href="#ac"/><use transform="matrix(0.010850694444444444,0,0,0.010850694444444444,91.14583333333331,0)" xlink:href="#S"/><use transform="matrix(0.010850694444444444,0,0,0.010850694444444444,104.16666666666664,0)" xlink:href="#at"/><use transform="matrix(0.010850694444444444,0,0,0.010850694444444444,117.18749999999997,0)" xlink:href="#ab"/><use transform="matrix(0.010850694444444444,0,0,0.010850694444444444,130.20833333333331,0)" xlink:href="#ai"/><use transform="matrix(0.010850694444444444,0,0,0.010850694444444444,143.22916666666666,0)" xlink:href="#am"/><use transform="matrix(0.010850694444444444,0,0,0.010850694444444444,156.25,0)" xlink:href="#S"/><use transform="matrix(0.010850694444444444,0,0,0.010850694444444444,169.27083333333334,0)" xlink:href="#an"/><use transform="matrix(0.010850694444444444,0,0,0.010850694444444444,182.29166666666669,0)" xlink:href="#ao"/></g><g id="B"><use transform="matrix(0.010850694444444444,0,0,0.010850694444444444,0,0)" xlink:href="#aa"/><use transform="matrix(0.010850694444444444,0,0,0.010850694444444444,13.020833333333332,0)" xlink:href="#T"/><use transform="matrix(0.010850694444444444,0,0,0.010850694444444444,26.041666666666664,0)" xlink:href="#ab"/><use transform="matrix(0.010850694444444444,0,0,0.010850694444444444,39.0625,0)" xlink:href="#Z"/><use transform="matrix(0.010850694444444444,0,0,0.010850694444444444,52.08333333333333,0)" xlink:href="#R"/><use transform="matrix(0.010850694444444444,0,0,0.010850694444444444,65.10416666666666,0)" xlink:href="#ae"/><use transform="matrix(0.010850694444444444,0,0,0.010850694444444444,78.12499999999999,0)" xlink:href="#ag"/><use transform="matrix(0.010850694444444444,0,0,0.010850694444444444,91.14583333333331,0)" xlink:href="#T"/><use transform="matrix(0.010850694444444444,0,0,0.010850694444444444,104.16666666666664,0)" xlink:href="#aa"/></g><g id="C"><use transform="matrix(0.010850694444444444,0,0,0.010850694444444444,0,0)" xlink:href="#ac"/><use transform="matrix(0.010850694444444444,0,0,0.010850694444444444,13.020833333333332,0)" xlink:href="#ag"/><use transform="matrix(0.010850694444444444,0,0,0.010850694444444444,26.041666666666664,0)" xlink:href="#W"/><use transform="matrix(0.010850694444444444,0,0,0.010850694444444444,39.0625,0)" xlink:href="#S"/></g><g id="D"><use transform="matrix(0.010850694444444444,0,0,0.010850694444444444,0,0)" xlink:href="#ai"/><use transform="matrix(0.010850694444444444,0,0,0.010850694444444444,13.020833333333332,0)" xlink:href="#Q"/><use transform="matrix(0.010850694444444444,0,0,0.010850694444444444,26.041666666666664,0)" xlink:href="#R"/><use transform="matrix(0.010850694444444444,0,0,0.010850694444444444,39.0625,0)" xlink:href="#X"/><use transform="matrix(0.010850694444444444,0,0,0.010850694444444444,52.08333333333333,0)" xlink:href="#aa"/><use transform="matrix(0.010850694444444444,0,0,0.010850694444444444,65.10416666666666,0)" xlink:href="#av"/><use transform="matrix(0.010850694444444444,0,0,0.010850694444444444,78.12499999999999,0)" xlink:href="#ae"/><use transform="matrix(0.010850694444444444,0,0,0.010850694444444444,91.14583333333331,0)" xlink:href="#S"/></g><g id="E"><use transform="matrix(0.010850694444444444,0,0,0.010850694444444444,0,0)" xlink:href="#aa"/><use transform="matrix(0.010850694444444444,0,0,0.010850694444444444,13.020833333333332,0)" xlink:href="#T"/><use transform="matrix(0.010850694444444444,0,0,0.010850694444444444,26.041666666666664,0)" xlink:href="#ab"/><use transform="matrix(0.010850694444444444,0,0,0.010850694444444444,39.0625,0)" xlink:href="#Y"/><use transform="matrix(0.010850694444444444,0,0,0.010850694444444444,52.08333333333333,0)" xlink:href="#Z"/><use transform="matrix(0.010850694444444444,0,0,0.010850694444444444,65.10416666666666,0)" xlink:href="#X"/></g><g id="F"><use transform="matrix(0.010850694444444444,0,0,0.010850694444444444,0,0)" xlink:href="#aa"/><use transform="matrix(0.010850694444444444,0,0,0.010850694444444444,13.020833333333332,0)" xlink:href="#av"/><use transform="matrix(0.010850694444444444,0,0,0.010850694444444444,26.041666666666664,0)" xlink:href="#ae"/><use transform="matrix(0.010850694444444444,0,0,0.010850694444444444,39.0625,0)" xlink:href="#S"/></g><g id="G"><use transform="matrix(0.010850694444444444,0,0,0.010850694444444444,0,0)" xlink:href="#ag"/><use transform="matrix(0.010850694444444444,0,0,0.010850694444444444,13.020833333333332,0)" xlink:href="#aa"/><use transform="matrix(0.010850694444444444,0,0,0.010850694444444444,26.041666666666664,0)" xlink:href="#af"/><use transform="matrix(0.010850694444444444,0,0,0.010850694444444444,39.0625,0)" xlink:href="#S"/><use transform="matrix(0.010850694444444444,0,0,0.010850694444444444,52.08333333333333,0)" xlink:href="#T"/><use transform="matrix(0.010850694444444444,0,0,0.010850694444444444,65.10416666666666,0)" xlink:href="#X"/></g><g id="H"><use transform="matrix(0.010850694444444444,0,0,0.010850694444444444,0,0)" xlink:href="#aa"/><use transform="matrix(0.010850694444444444,0,0,0.010850694444444444,13.020833333333332,0)" xlink:href="#av"/><use transform="matrix(0.010850694444444444,0,0,0.010850694444444444,26.041666666666664,0)" xlink:href="#ae"/><use transform="matrix(0.010850694444444444,0,0,0.010850694444444444,39.0625,0)" xlink:href="#S"/></g><path fill="#3a414a" d="M1057-366C1051-81 860 20 551 20 386 20 246-7 129-58l26-202c126 53 252 94 412 96 167-1 272-47 276-198 0-85-45-144-130-186-231-115-541-175-546-502-1-255 167-393 429-390 219 3 340 65 465 179l-140 142c-100-78-175-134-324-137-133-3-217 64-216 196 3 110 63 149 146 190 149 74 358 153 448 265 55 62 82 142 82 239" id="ay"/><path fill="#3a414a" d="M566-580l30-230h12l154-610h142v252h-58L692-580H566zM128 0v-1420h200V0H128zm380-580l-154-588h-58v-252h142l154 610h8l20 230H508zM872 0v-1420h200V0H872" id="az"/><g id="I"><use transform="matrix(0.010850694444444444,0,0,0.010850694444444444,0,0)" xlink:href="#ay"/><use transform="matrix(0.010850694444444444,0,0,0.010850694444444444,13.020833333333332,0)" xlink:href="#af"/><use transform="matrix(0.010850694444444444,0,0,0.010850694444444444,26.041666666666664,0)" xlink:href="#ag"/><use transform="matrix(0.010850694444444444,0,0,0.010850694444444444,39.0625,0)" xlink:href="#ax"/><use transform="matrix(0.010850694444444444,0,0,0.010850694444444444,52.08333333333333,0)" xlink:href="#at"/><use transform="matrix(0.010850694444444444,0,0,0.010850694444444444,65.10416666666666,0)" xlink:href="#T"/><use transform="matrix(0.010850694444444444,0,0,0.010850694444444444,78.12499999999999,0)" xlink:href="#ab"/><use transform="matrix(0.010850694444444444,0,0,0.010850694444444444,91.14583333333331,0)" xlink:href="#Z"/><use transform="matrix(0.010850694444444444,0,0,0.010850694444444444,104.16666666666664,0)" xlink:href="#R"/><use transform="matrix(0.010850694444444444,0,0,0.010850694444444444,117.18749999999997,0)" xlink:href="#ae"/><use transform="matrix(0.010850694444444444,0,0,0.010850694444444444,130.20833333333331,0)" xlink:href="#ag"/><use transform="matrix(0.010850694444444444,0,0,0.010850694444444444,143.22916666666666,0)" xlink:href="#T"/><use transform="matrix(0.010850694444444444,0,0,0.010850694444444444,156.25,0)" xlink:href="#aa"/><use transform="matrix(0.010850694444444444,0,0,0.010850694444444444,169.27083333333334,0)" xlink:href="#az"/><use transform="matrix(0.010850694444444444,0,0,0.010850694444444444,182.29166666666669,0)" xlink:href="#ag"/><use transform="matrix(0.010850694444444444,0,0,0.010850694444444444,195.31250000000003,0)" xlink:href="#W"/><use transform="matrix(0.010850694444444444,0,0,0.010850694444444444,208.33333333333337,0)" xlink:href="#S"/><use transform="matrix(0.010850694444444444,0,0,0.010850694444444444,221.35416666666669,0)" xlink:href="#an"/><use transform="matrix(0.010850694444444444,0,0,0.010850694444444444,234.37500000000006,0)" xlink:href="#ao"/></g><g id="J"><use transform="matrix(0.010850694444444444,0,0,0.010850694444444444,0,0)" xlink:href="#aa"/><use transform="matrix(0.010850694444444444,0,0,0.010850694444444444,13.020833333333332,0)" xlink:href="#T"/><use transform="matrix(0.010850694444444444,0,0,0.010850694444444444,26.041666666666664,0)" xlink:href="#ab"/><use transform="matrix(0.010850694444444444,0,0,0.010850694444444444,39.0625,0)" xlink:href="#au"/><use transform="matrix(0.010850694444444444,0,0,0.010850694444444444,52.08333333333333,0)" xlink:href="#as"/><use transform="matrix(0.010850694444444444,0,0,0.010850694444444444,65.10416666666666,0)" xlink:href="#Y"/><use transform="matrix(0.010850694444444444,0,0,0.010850694444444444,78.12499999999999,0)" xlink:href="#Z"/><use transform="matrix(0.010850694444444444,0,0,0.010850694444444444,91.14583333333331,0)" xlink:href="#ad"/></g><g id="K"><use transform="matrix(0.010850694444444444,0,0,0.010850694444444444,0,0)" xlink:href="#au"/><use transform="matrix(0.010850694444444444,0,0,0.010850694444444444,13.020833333333332,0)" xlink:href="#Q"/><use transform="matrix(0.010850694444444444,0,0,0.010850694444444444,26.041666666666664,0)" xlink:href="#T"/><use transform="matrix(0.010850694444444444,0,0,0.010850694444444444,39.0625,0)" xlink:href="#T"/><use transform="matrix(0.010850694444444444,0,0,0.010850694444444444,52.08333333333333,0)" xlink:href="#S"/><use transform="matrix(0.010850694444444444,0,0,0.010850694444444444,65.10416666666666,0)" xlink:href="#Z"/><use transform="matrix(0.010850694444444444,0,0,0.010850694444444444,78.12499999999999,0)" xlink:href="#aa"/><use transform="matrix(0.010850694444444444,0,0,0.010850694444444444,91.14583333333331,0)" xlink:href="#aw"/><use transform="matrix(0.010850694444444444,0,0,0.010850694444444444,104.16666666666664,0)" xlink:href="#ag"/><use transform="matrix(0.010850694444444444,0,0,0.010850694444444444,117.18749999999997,0)" xlink:href="#au"/><use transform="matrix(0.010850694444444444,0,0,0.010850694444444444,130.20833333333331,0)" xlink:href="#ab"/><use transform="matrix(0.010850694444444444,0,0,0.010850694444444444,143.22916666666666,0)" xlink:href="#aa"/><use transform="matrix(0.010850694444444444,0,0,0.010850694444444444,156.25,0)" xlink:href="#Y"/><use transform="matrix(0.010850694444444444,0,0,0.010850694444444444,169.27083333333334,0)" xlink:href="#ag"/><use transform="matrix(0.010850694444444444,0,0,0.010850694444444444,182.29166666666669,0)" xlink:href="#Z"/><use transform="matrix(0.010850694444444444,0,0,0.010850694444444444,195.31250000000003,0)" xlink:href="#X"/><use transform="matrix(0.010850694444444444,0,0,0.010850694444444444,208.33333333333337,0)" xlink:href="#R"/><use transform="matrix(0.010850694444444444,0,0,0.010850694444444444,221.35416666666669,0)" xlink:href="#aa"/><use transform="matrix(0.010850694444444444,0,0,0.010850694444444444,234.37500000000006,0)" xlink:href="#T"/><use transform="matrix(0.010850694444444444,0,0,0.010850694444444444,247.3958333333334,0)" xlink:href="#Y"/><use transform="matrix(0.010850694444444444,0,0,0.010850694444444444,260.41666666666674,0)" xlink:href="#Z"/><use transform="matrix(0.010850694444444444,0,0,0.010850694444444444,273.43750000000006,0)" xlink:href="#ad"/></g><path fill="#3a414a" d="M160 0v-1420h208V0H160zm0 0v-190h940V0H160zm0-616v-190h760v190H160zm0-614v-190h940v190H160" id="aA"/><g id="L"><use transform="matrix(0.010850694444444444,0,0,0.010850694444444444,0,0)" xlink:href="#ad"/><use transform="matrix(0.010850694444444444,0,0,0.010850694444444444,13.020833333333332,0)" xlink:href="#S"/><use transform="matrix(0.010850694444444444,0,0,0.010850694444444444,26.041666666666664,0)" xlink:href="#aa"/><use transform="matrix(0.010850694444444444,0,0,0.010850694444444444,39.0625,0)" xlink:href="#aA"/><use transform="matrix(0.010850694444444444,0,0,0.010850694444444444,52.08333333333333,0)" xlink:href="#R"/><use transform="matrix(0.010850694444444444,0,0,0.010850694444444444,65.10416666666666,0)" xlink:href="#aa"/><use transform="matrix(0.010850694444444444,0,0,0.010850694444444444,78.12499999999999,0)" xlink:href="#Y"/><use transform="matrix(0.010850694444444444,0,0,0.010850694444444444,91.14583333333331,0)" xlink:href="#ac"/><use transform="matrix(0.010850694444444444,0,0,0.010850694444444444,104.16666666666664,0)" xlink:href="#ab"/><use transform="matrix(0.010850694444444444,0,0,0.010850694444444444,117.18749999999997,0)" xlink:href="#aa"/><use transform="matrix(0.010850694444444444,0,0,0.010850694444444444,130.20833333333331,0)" xlink:href="#S"/><use transform="matrix(0.010850694444444444,0,0,0.010850694444444444,143.22916666666666,0)" xlink:href="#W"/><use transform="matrix(0.010850694444444444,0,0,0.010850694444444444,156.25,0)" xlink:href="#at"/><use transform="matrix(0.010850694444444444,0,0,0.010850694444444444,169.27083333333334,0)" xlink:href="#Y"/><use transform="matrix(0.010850694444444444,0,0,0.010850694444444444,182.29166666666669,0)" xlink:href="#ac"/><use transform="matrix(0.010850694444444444,0,0,0.010850694444444444,195.31250000000003,0)" xlink:href="#S"/><use transform="matrix(0.010850694444444444,0,0,0.010850694444444444,208.33333333333337,0)" xlink:href="#an"/><use transform="matrix(0.010850694444444444,0,0,0.010850694444444444,221.35416666666669,0)" xlink:href="#ao"/></g><path d="M27 0v-27h64v-190l-56 39v-29l58-41h29v221h61V0H27" id="aB"/><path d="M33 0v-38h34V0H33" id="aC"/><g id="M"><use transform="matrix(0.05,0,0,0.05,0,0)" xlink:href="#aB"/><use transform="matrix(0.05,0,0,0.05,10,0)" xlink:href="#aC"/><use transform="matrix(0.05,0,0,0.05,15,0)" xlink:href="#aC"/><use transform="matrix(0.05,0,0,0.05,20,0)" xlink:href="#aC"/><use transform="matrix(0.05,0,0,0.05,25,0)" xlink:href="#aB"/></g><g id="N"><use transform="matrix(0.05,0,0,0.05,0,0)" xlink:href="#aB"/><use transform="matrix(0.05,0,0,0.05,10,0)" xlink:href="#aC"/><use transform="matrix(0.05,0,0,0.05,15,0)" xlink:href="#aC"/><use transform="matrix(0.05,0,0,0.05,20,0)" xlink:href="#aB"/></g><path d="M80-196l47-18 7 23-49 13 32 44-20 13-27-46-27 45-21-12 33-44-49-13 8-23 47 19-2-53h23" id="aD"/><g id="O"><use transform="matrix(0.05,0,0,0.05,0,0)" xlink:href="#aB"/><use transform="matrix(0.05,0,0,0.05,10,0)" xlink:href="#aC"/><use transform="matrix(0.05,0,0,0.05,15,0)" xlink:href="#aC"/><use transform="matrix(0.05,0,0,0.05,20,0)" xlink:href="#aD"/></g><g id="P"><use transform="matrix(0.05,0,0,0.05,0,0)" xlink:href="#aB"/><use transform="matrix(0.05,0,0,0.05,10,0)" xlink:href="#aC"/><use transform="matrix(0.05,0,0,0.05,15,0)" xlink:href="#aB"/><use transform="matrix(0.05,0,0,0.05,25,0)" xlink:href="#aD"/></g></defs></g></svg>