<svg xmlns="http://www.w3.org/2000/svg" xmlns:xlink="http://www.w3.org/1999/xlink" xmlns:lucid="lucid" width="1480" height="780"><g transform="translate(-260 -1660)" lucid:page-tab-id="0_0"><path d="M0 1258.84h1870.87v1322.83H0z" fill="#fff"/><path d="M1100 2080c0 44.18-35.82 80-80 80s-80-35.82-80-80 35.82-80 80-80 80 35.82 80 80z" stroke="#3a414a" fill="#fff"/><use xlink:href="#a" transform="matrix(1,0,0,1,945,2005) translate(35.9425 58.11631944444444)"/><use xlink:href="#b" transform="matrix(1,0,0,1,945,2005) translate(16.406250000000014 83.94097222222221)"/><use xlink:href="#c" transform="matrix(1,0,0,1,945,2005) translate(35.9425 109.76562499999999)"/><path d="M280 1686a6 6 0 0 1 6-6h308a6 6 0 0 1 6 6v108a6 6 0 0 1-6 6H286a6 6 0 0 1-6-6z" stroke="#3a414a" fill="#fff"/><use xlink:href="#d" transform="matrix(1,0,0,1,285,1685) translate(53.4375 62.69097222222222)"/><use xlink:href="#e" transform="matrix(1,0,0,1,285,1685) translate(121.14583333333333 62.69097222222222)"/><path d="M280 2106a6 6 0 0 1 6-6h308a6 6 0 0 1 6 6v108a6 6 0 0 1-6 6H286a6 6 0 0 1-6-6z" stroke="#3a414a" fill="#fff"/><use xlink:href="#f" transform="matrix(1,0,0,1,285,2105) translate(18.28125000000003 61.86631944444444)"/><use xlink:href="#g" transform="matrix(1,0,0,1,285,2105) translate(83.38541666666669 61.86631944444444)"/><use xlink:href="#h" transform="matrix(1,0,0,1,285,2105) translate(161.51041666666666 61.86631944444444)"/><path d="M1400 1686a6 6 0 0 1 6-6h308a6 6 0 0 1 6 6v108a6 6 0 0 1-6 6h-308a6 6 0 0 1-6-6z" stroke="#3a414a" fill="#fff"/><use xlink:href="#i" transform="matrix(1,0,0,1,1405,1685) translate(19.583333333333314 62.69097222222222)"/><use xlink:href="#j" transform="matrix(1,0,0,1,1405,1685) translate(141.45833333333331 62.69097222222222)"/><use xlink:href="#k" transform="matrix(1,0,0,1,1405,1685) translate(209.16666666666666 62.69097222222222)"/><path d="M1400 2106a6 6 0 0 1 6-6h308a6 6 0 0 1 6 6v108a6 6 0 0 1-6 6h-308a6 6 0 0 1-6-6z" stroke="#3a414a" fill="#fff"/><use xlink:href="#i" transform="matrix(1,0,0,1,1405,2105) translate(26.354166666666657 62.69097222222222)"/><use xlink:href="#l" transform="matrix(1,0,0,1,1405,2105) translate(148.22916666666669 62.69097222222222)"/><use xlink:href="#m" transform="matrix(1,0,0,1,1405,2105) translate(215.9375 62.69097222222222)"/><path d="M1400 2306a6 6 0 0 1 6-6h308a6 6 0 0 1 6 6v108a6 6 0 0 1-6 6h-308a6 6 0 0 1-6-6z" stroke="#3a414a" fill="#fff"/><use xlink:href="#i" transform="matrix(1,0,0,1,1405,2305) translate(46.66666666666666 48.94097222222222)"/><use xlink:href="#n" transform="matrix(1,0,0,1,1405,2305) translate(168.54166666666669 48.94097222222222)"/><use xlink:href="#k" transform="matrix(1,0,0,1,1405,2305) translate(114.375 75.79861111111111)"/><path d="M1400 1886a6 6 0 0 1 6-6h308a6 6 0 0 1 6 6v108a6 6 0 0 1-6 6h-308a6 6 0 0 1-6-6z" stroke="#3a414a" fill="#fff"/><use xlink:href="#o" transform="matrix(1,0,0,1,1405,1885) translate(53.4375 48.94097222222222)"/><use xlink:href="#p" transform="matrix(1,0,0,1,1405,1885) translate(134.6875 48.94097222222222)"/><use xlink:href="#q" transform="matrix(1,0,0,1,1405,1885) translate(107.60416666666666 75.79861111111111)"/><path d="M280 1886a6 6 0 0 1 6-6h308a6 6 0 0 1 6 6v108a6 6 0 0 1-6 6H286a6 6 0 0 1-6-6z" stroke="#3a414a" fill="#fff"/><use xlink:href="#r" transform="matrix(1,0,0,1,285,1885) translate(63.854166666666686 48.11631944444444)"/><use xlink:href="#s" transform="matrix(1,0,0,1,285,1885) translate(194.0625 48.11631944444444)"/><use xlink:href="#h" transform="matrix(1,0,0,1,285,1885) translate(89.89583333333334 73.94097222222221)"/><path d="M280 2306a6 6 0 0 1 6-6h308a6 6 0 0 1 6 6v108a6 6 0 0 1-6 6H286a6 6 0 0 1-6-6z" stroke="#3a414a" fill="#fff"/><use xlink:href="#t" transform="matrix(1,0,0,1,285,2305) translate(37.81250000000003 61.86631944444444)"/><use xlink:href="#h" transform="matrix(1,0,0,1,285,2305) translate(141.97916666666669 61.86631944444444)"/><path d="M601 1740h413a6 6 0 0 1 6 6v237.12" stroke="#3a414a" fill="none"/><path d="M601 1740.5h-.5v-1h.5z" stroke="#3a414a" stroke-width=".05" fill="#3a414a"/><path d="M1020 1997.88l-4.63-14.26h9.26z" stroke="#3a414a" fill="#3a414a"/><path d="M601 1940h163a6 6 0 0 1 6 6v128a6 6 0 0 0 6 6h147.12" stroke="#3a414a" fill="none"/><path d="M601 1940.5h-.5v-1h.5z" stroke="#3a414a" stroke-width=".05" fill="#3a414a"/><path d="M937.88 2080l-14.26 4.64v-9.28z" stroke="#3a414a" fill="#3a414a"/><path d="M1399 1940h-143a6 6 0 0 0-6 6v128a6 6 0 0 1-6 6h-127.12" stroke="#3a414a" fill="none"/><path d="M1399.5 1940.5h-.5v-1h.5z" stroke="#3a414a" stroke-width=".05" fill="#3a414a"/><path d="M1102.12 2080l14.26-4.64v9.28z" stroke="#3a414a" fill="#3a414a"/><path d="M601 2360h413a6 6 0 0 0 6-6v-177.12" stroke="#3a414a" fill="none"/><path d="M601 2360.5h-.5v-1h.5z" stroke="#3a414a" stroke-width=".05" fill="#3a414a"/><path d="M1020 2162.12l4.63 14.26h-9.27z" stroke="#3a414a" fill="#3a414a"/><path d="M1399 2360h-362.62" stroke="#3a414a" fill="none"/><path d="M1399.5 2360.5h-.5v-1h.5z" stroke="#3a414a" stroke-width=".05" fill="#3a414a"/><path d="M1021.62 2360l14.26-4.64v9.28z" stroke="#3a414a" fill="#3a414a"/><path d="M1399 1740h-362.62" stroke="#3a414a" fill="none"/><path d="M1399.5 1740.5h-.5v-1h.5z" stroke="#3a414a" stroke-width=".05" fill="#3a414a"/><path d="M1021.62 1740l14.26-4.63v9.27z" stroke="#3a414a" fill="#3a414a"/><path d="M601 2160h168.2a6 6 0 0 0 6-6v-57.62" stroke="#3a414a" fill="none"/><path d="M601 2160.5h-.5v-1h.5z" stroke="#3a414a" stroke-width=".05" fill="#3a414a"/><path d="M775.2 2081.62l4.63 14.26h-9.26z" stroke="#3a414a" fill="#3a414a"/><path d="M1399 2160h-149.8a6 6 0 0 1-6-6v-57.62" stroke="#3a414a" fill="none"/><path d="M1399.5 2160.5h-.5v-1h.5z" stroke="#3a414a" stroke-width=".05" fill="#3a414a"/><path d="M1243.2 2081.62l4.63 14.26h-9.26z" stroke="#3a414a" fill="#3a414a"/><defs><path fill="#3a414a" d="M1120-950c0 341-195 511-542 510H344v-190h234c215 1 332-108 332-320-1-195-127-280-332-280H348v-190h230c338-2 540 145 542 470zM160 0v-1420h208V0H160" id="u"/><path fill="#3a414a" d="M774-204C745-71 650 19 496 20c-227 1-350-147-350-380v-700h212v700c-1 122 75 191 198 190 180-7 234-116 234-320l54 286h-70zm34 214c-11-142-22-283-18-440h212v238l146 22V0zm-18-310v-760h212v700" id="v"/><path fill="#3a414a" d="M1099-600c0 398-248 624-652 620-101 0-192-9-284-20l82-194c64 33 153 33 244 34 262 1 403-171 400-440 2-177-77-299-244-300-180 0-270 101-270 304l-62-272h82c10-141 97-212 260-212 289-1 444 184 444 480zM163 0v-1500h212V-18" id="w"/><path fill="#3a414a" d="M1074-22C971 6 883 20 758 20c-264-4-348-143-348-420v-1100h212v1090c-4 166 46 246 216 240 55 0 126-13 212-38zM98-1314v-186h330v186H98" id="x"/><path fill="#3a414a" d="M564 0v-1000h212V0H564zM160 0v-186h424V0H160zm596 0v-186h346V0H756zM220-874v-186h556v186H220zm591-502c0 79-68 148-148 148-79 0-148-69-148-148 0-80 69-148 148-148 80 0 148 68 148 148" id="y"/><path fill="#3a414a" d="M1042-10C941 13 821 19 702 20c-357 2-566-196-566-552 0-343 194-551 538-548 203-1 362 80 423 220L934-737c-52-86-142-151-268-153-206 0-318 135-316 348-1 240 136 373 376 372 102 0 203-11 292-26" id="z"/><g id="a"><use transform="matrix(0.010850694444444444,0,0,0.010850694444444444,0,0)" xlink:href="#u"/><use transform="matrix(0.010850694444444444,0,0,0.010850694444444444,13.020833333333332,0)" xlink:href="#v"/><use transform="matrix(0.010850694444444444,0,0,0.010850694444444444,26.041666666666664,0)" xlink:href="#w"/><use transform="matrix(0.010850694444444444,0,0,0.010850694444444444,39.0625,0)" xlink:href="#x"/><use transform="matrix(0.010850694444444444,0,0,0.010850694444444444,52.08333333333333,0)" xlink:href="#y"/><use transform="matrix(0.010850694444444444,0,0,0.010850694444444444,65.10416666666666,0)" xlink:href="#z"/></g><path fill="#3a414a" d="M1070-4c-92 15-173 24-278 24-314-2-452-115-456-420v-180h212v170c2 176 82 239 264 240 83 0 151-10 234-20zM336-500v-880h212v880H336zM70-874v-186h960v186H70" id="A"/><path fill="#3a414a" d="M942-682c-2-136-26-213-146-218-90 0-158 39-202 116s-66 186-66 328l-62-332h82c12-195 109-292 292-292 241 0 310 139 312 398H942zM80 0v-186h708V0H80zm236 0v-1060h172l40 304V0H316zM120-874v-186h354l20 186H120" id="B"/><path fill="#3a414a" d="M818 10l-14-314-28-88c-12-161 36-360-74-430-98-62-314-51-476-60l20-188 214 3c324 4 518 127 518 433v442l180 22V0zm-30-266C784-59 645 18 444 20 234 22 96-84 96-286c5-249 208-350 480-348 120 0 219 13 302 46l-44 144c-84-20-164-19-262-20-184 0-276 56-276 168 1 100 75 147 182 146 169-1 286-79 298-230v-116l62 272h-84" id="C"/><path fill="#3a414a" d="M680-1080c231-1 352 153 352 390V0H820v-690c1-124-68-200-190-200-167 0-250 98-250 294l-62-272h82c14-150 111-212 280-212zM168 0v-1060h192l20 224V0H168" id="D"/><path fill="#3a414a" d="M994-876c-155-17-412-26-522 16-53 20-80 54-80 100 6 78 60 82 134 104 229 69 521 71 518 350 0 114-42 196-125 248S702 20 518 20c-146 0-251-6-362-30l24-192c169 29 429 50 572 0 74-26 93-117 46-172-17-16-43-26-78-36-152-41-380-81-474-161-49-39-74-99-74-179 0-116 47-196 134-252 124-80 489-95 710-58" id="E"/><path fill="#3a414a" d="M168 460v-1520h192l20 224V460H168zm936-980c1 325-119 535-423 540-155 2-268-75-281-212h-92l72-302c-1 199 70 334 254 334 192 0 261-149 260-360 0-220-64-380-260-380-184 0-255 136-254 334l-72-302h82c18-136 132-214 291-212 308 6 424 227 423 560" id="F"/><path fill="#3a414a" d="M1064-530c0 326-153 549-464 550-310-1-464-224-464-550 0-327 154-549 464-550 311 1 464 223 464 550zm-708 0c-1 200 66 360 244 360s245-161 244-360c1-201-65-360-244-360S355-730 356-530" id="G"/><g id="b"><use transform="matrix(0.010850694444444444,0,0,0.010850694444444444,0,0)" xlink:href="#A"/><use transform="matrix(0.010850694444444444,0,0,0.010850694444444444,13.020833333333332,0)" xlink:href="#B"/><use transform="matrix(0.010850694444444444,0,0,0.010850694444444444,26.041666666666664,0)" xlink:href="#C"/><use transform="matrix(0.010850694444444444,0,0,0.010850694444444444,39.0625,0)" xlink:href="#D"/><use transform="matrix(0.010850694444444444,0,0,0.010850694444444444,52.08333333333333,0)" xlink:href="#E"/><use transform="matrix(0.010850694444444444,0,0,0.010850694444444444,65.10416666666666,0)" xlink:href="#F"/><use transform="matrix(0.010850694444444444,0,0,0.010850694444444444,78.12499999999999,0)" xlink:href="#G"/><use transform="matrix(0.010850694444444444,0,0,0.010850694444444444,91.14583333333331,0)" xlink:href="#B"/><use transform="matrix(0.010850694444444444,0,0,0.010850694444444444,104.16666666666664,0)" xlink:href="#A"/></g><path fill="#3a414a" d="M75 480L65 290c125-16 260-21 345-77 118-74 173-194 221-357l264-916h220L809-94c-98 302-212 514-554 554zM477 0L55-1060h220l346 900h32V0H477" id="H"/><path fill="#3a414a" d="M1002-8C898 13 800 19 692 20c-357 2-566-196-566-552 0-328 162-548 478-548 347 0 489 269 444 644H304v-162h558c3-178-87-295-256-296-193 2-286 146-284 352-1 247 146 377 394 376 95 0 177-12 260-28" id="I"/><path fill="#3a414a" d="M878-1080c158 3 209 84 210 250V0H876v-810c0-73-27-110-82-110-69 0-104 48-104 144l-72-152h82c8-87 74-156 178-152zM112 0v-1060h188l24 224V0H112zm400-1080c124 3 178 92 178 230V0H510v-830c0-60-28-90-84-90-68 0-102 48-102 144l-62-152h68c8-101 69-152 182-152" id="J"/><g id="c"><use transform="matrix(0.010850694444444444,0,0,0.010850694444444444,0,0)" xlink:href="#E"/><use transform="matrix(0.010850694444444444,0,0,0.010850694444444444,13.020833333333332,0)" xlink:href="#H"/><use transform="matrix(0.010850694444444444,0,0,0.010850694444444444,26.041666666666664,0)" xlink:href="#E"/><use transform="matrix(0.010850694444444444,0,0,0.010850694444444444,39.0625,0)" xlink:href="#A"/><use transform="matrix(0.010850694444444444,0,0,0.010850694444444444,52.08333333333333,0)" xlink:href="#I"/><use transform="matrix(0.010850694444444444,0,0,0.010850694444444444,65.10416666666666,0)" xlink:href="#J"/></g><path fill="#767676" d="M1060-456c1 313-156 476-464 476-304 0-456-159-456-476v-964h208v964c1 183 72 285 252 286 168 0 252-95 252-286v-964h208v964" id="K"/><path fill="#767676" d="M994-876c-155-17-412-26-522 16-53 20-80 54-80 100 6 78 60 82 134 104 229 69 521 71 518 350 0 114-42 196-125 248S702 20 518 20c-146 0-251-6-362-30l24-192c169 29 429 50 572 0 74-26 93-117 46-172-17-16-43-26-78-36-152-41-380-81-474-161-49-39-74-99-74-179 0-116 47-196 134-252 124-80 489-95 710-58" id="L"/><path fill="#767676" d="M1002-8C898 13 800 19 692 20c-357 2-566-196-566-552 0-328 162-548 478-548 347 0 489 269 444 644H304v-162h558c3-178-87-295-256-296-193 2-286 146-284 352-1 247 146 377 394 376 95 0 177-12 260-28" id="M"/><path fill="#767676" d="M942-682c-2-136-26-213-146-218-90 0-158 39-202 116s-66 186-66 328l-62-332h82c12-195 109-292 292-292 241 0 310 139 312 398H942zM80 0v-186h708V0H80zm236 0v-1060h172l40 304V0H316zM120-874v-186h354l20 186H120" id="N"/><g id="d"><use transform="matrix(0.011284722222222222,0,0,0.011284722222222222,0,0)" xlink:href="#K"/><use transform="matrix(0.011284722222222222,0,0,0.011284722222222222,13.541666666666666,0)" xlink:href="#L"/><use transform="matrix(0.011284722222222222,0,0,0.011284722222222222,27.083333333333332,0)" xlink:href="#M"/><use transform="matrix(0.011284722222222222,0,0,0.011284722222222222,40.625,0)" xlink:href="#N"/></g><path fill="#767676" d="M566-580l30-230h12l154-610h142v252h-58L692-580H566zM128 0v-1420h200V0H128zm380-580l-154-588h-58v-252h142l154 610h8l20 230H508zM872 0v-1420h200V0H872" id="O"/><path fill="#767676" d="M818 10l-14-314-28-88c-12-161 36-360-74-430-98-62-314-51-476-60l20-188 214 3c324 4 518 127 518 433v442l180 22V0zm-30-266C784-59 645 18 444 20 234 22 96-84 96-286c5-249 208-350 480-348 120 0 219 13 302 46l-44 144c-84-20-164-19-262-20-184 0-276 56-276 168 1 100 75 147 182 146 169-1 286-79 298-230v-116l62 272h-84" id="P"/><path fill="#767676" d="M680-1080c231-1 352 153 352 390V0H820v-690c1-124-68-200-190-200-167 0-250 98-250 294l-62-272h82c14-150 111-212 280-212zM168 0v-1060h192l20 224V0H168" id="Q"/><path fill="#767676" d="M182 478l-10-194c205-16 477 24 574-99 46-58 73-138 74-247v-774l20-224h192v966c-3 384-165 548-540 562zm618-670C787-55 674 22 519 20 216 16 95-195 96-520c-1-333 116-554 423-560 158-2 274 75 291 212h82l-72 302c1-199-70-334-254-334-196 0-260 161-260 380 0 212 68 360 260 360 184 0 255-136 254-334l72 302h-92" id="R"/><path fill="#767676" d="M878-1080c158 3 209 84 210 250V0H876v-810c0-73-27-110-82-110-69 0-104 48-104 144l-72-152h82c8-87 74-156 178-152zM112 0v-1060h188l24 224V0H112zm400-1080c124 3 178 92 178 230V0H510v-830c0-60-28-90-84-90-68 0-102 48-102 144l-62-152h68c8-101 69-152 182-152" id="S"/><path fill="#767676" d="M1070-4c-92 15-173 24-278 24-314-2-452-115-456-420v-180h212v170c2 176 82 239 264 240 83 0 151-10 234-20zM336-500v-880h212v880H336zM70-874v-186h960v186H70" id="T"/><g id="e"><use transform="matrix(0.011284722222222222,0,0,0.011284722222222222,0,0)" xlink:href="#O"/><use transform="matrix(0.011284722222222222,0,0,0.011284722222222222,13.541666666666666,0)" xlink:href="#P"/><use transform="matrix(0.011284722222222222,0,0,0.011284722222222222,27.083333333333332,0)" xlink:href="#Q"/><use transform="matrix(0.011284722222222222,0,0,0.011284722222222222,40.625,0)" xlink:href="#P"/><use transform="matrix(0.011284722222222222,0,0,0.011284722222222222,54.166666666666664,0)" xlink:href="#R"/><use transform="matrix(0.011284722222222222,0,0,0.011284722222222222,67.70833333333333,0)" xlink:href="#M"/><use transform="matrix(0.011284722222222222,0,0,0.011284722222222222,81.25,0)" xlink:href="#S"/><use transform="matrix(0.011284722222222222,0,0,0.011284722222222222,94.79166666666667,0)" xlink:href="#M"/><use transform="matrix(0.011284722222222222,0,0,0.011284722222222222,108.33333333333336,0)" xlink:href="#Q"/><use transform="matrix(0.011284722222222222,0,0,0.011284722222222222,121.87500000000001,0)" xlink:href="#T"/></g><path fill="#3a414a" d="M496 0v-1420h208V0H496zM80-1230v-190h1040v190H80" id="U"/><g id="f"><use transform="matrix(0.010850694444444444,0,0,0.010850694444444444,0,0)" xlink:href="#U"/><use transform="matrix(0.010850694444444444,0,0,0.010850694444444444,13.020833333333332,0)" xlink:href="#y"/><use transform="matrix(0.010850694444444444,0,0,0.010850694444444444,26.041666666666664,0)" xlink:href="#J"/><use transform="matrix(0.010850694444444444,0,0,0.010850694444444444,39.0625,0)" xlink:href="#I"/></g><g id="g"><use transform="matrix(0.010850694444444444,0,0,0.010850694444444444,0,0)" xlink:href="#A"/><use transform="matrix(0.010850694444444444,0,0,0.010850694444444444,13.020833333333332,0)" xlink:href="#C"/><use transform="matrix(0.010850694444444444,0,0,0.010850694444444444,26.041666666666664,0)" xlink:href="#w"/><use transform="matrix(0.010850694444444444,0,0,0.010850694444444444,39.0625,0)" xlink:href="#I"/><use transform="matrix(0.010850694444444444,0,0,0.010850694444444444,52.08333333333333,0)" xlink:href="#x"/></g><path fill="#3a414a" d="M182 478l-10-194c205-16 477 24 574-99 46-58 73-138 74-247v-774l20-224h192v966c-3 384-165 548-540 562zm618-670C787-55 674 22 519 20 216 16 95-195 96-520c-1-333 116-554 423-560 158-2 274 75 291 212h82l-72 302c1-199-70-334-254-334-196 0-260 161-260 380 0 212 68 360 260 360 184 0 255-136 254-334l72 302h-92" id="V"/><g id="h"><use transform="matrix(0.010850694444444444,0,0,0.010850694444444444,0,0)" xlink:href="#J"/><use transform="matrix(0.010850694444444444,0,0,0.010850694444444444,13.020833333333332,0)" xlink:href="#C"/><use transform="matrix(0.010850694444444444,0,0,0.010850694444444444,26.041666666666664,0)" xlink:href="#D"/><use transform="matrix(0.010850694444444444,0,0,0.010850694444444444,39.0625,0)" xlink:href="#C"/><use transform="matrix(0.010850694444444444,0,0,0.010850694444444444,52.08333333333333,0)" xlink:href="#V"/><use transform="matrix(0.010850694444444444,0,0,0.010850694444444444,65.10416666666666,0)" xlink:href="#I"/><use transform="matrix(0.010850694444444444,0,0,0.010850694444444444,78.12499999999999,0)" xlink:href="#J"/><use transform="matrix(0.010850694444444444,0,0,0.010850694444444444,91.14583333333331,0)" xlink:href="#I"/><use transform="matrix(0.010850694444444444,0,0,0.010850694444444444,104.16666666666664,0)" xlink:href="#D"/><use transform="matrix(0.010850694444444444,0,0,0.010850694444444444,117.18749999999997,0)" xlink:href="#A"/></g><path fill="#767676" d="M1090-40c-89 25-250 62-388 60C256 13 66-248 66-712c0-435 212-728 628-728 191-1 355 62 426 178l-149 148c-53-80-143-140-265-142-291 3-426 223-426 534 0 344 124 553 446 558 109 4 210-30 286-50zm-198 0v-670h198v670H892zM610-520v-190h474v190H610" id="W"/><g id="i"><use transform="matrix(0.011284722222222222,0,0,0.011284722222222222,0,0)" xlink:href="#W"/><use transform="matrix(0.011284722222222222,0,0,0.011284722222222222,13.541666666666666,0)" xlink:href="#M"/><use transform="matrix(0.011284722222222222,0,0,0.011284722222222222,27.083333333333332,0)" xlink:href="#Q"/><use transform="matrix(0.011284722222222222,0,0,0.011284722222222222,40.625,0)" xlink:href="#M"/><use transform="matrix(0.011284722222222222,0,0,0.011284722222222222,54.166666666666664,0)" xlink:href="#N"/><use transform="matrix(0.011284722222222222,0,0,0.011284722222222222,67.70833333333333,0)" xlink:href="#P"/><use transform="matrix(0.011284722222222222,0,0,0.011284722222222222,81.25,0)" xlink:href="#T"/><use transform="matrix(0.011284722222222222,0,0,0.011284722222222222,94.79166666666667,0)" xlink:href="#M"/></g><path fill="#767676" d="M774-204C745-71 650 19 496 20c-227 1-350-147-350-380v-700h212v700c-1 122 75 191 198 190 180-7 234-116 234-320l54 286h-70zm34 214c-11-142-22-283-18-440h212v238l146 22V0zm-18-310v-760h212v700" id="X"/><g id="j"><use transform="matrix(0.011284722222222222,0,0,0.011284722222222222,0,0)" xlink:href="#X"/><use transform="matrix(0.011284722222222222,0,0,0.011284722222222222,13.541666666666666,0)" xlink:href="#L"/><use transform="matrix(0.011284722222222222,0,0,0.011284722222222222,27.083333333333332,0)" xlink:href="#M"/><use transform="matrix(0.011284722222222222,0,0,0.011284722222222222,40.625,0)" xlink:href="#N"/></g><path fill="#767676" d="M168 460v-1520h192l20 224V460H168zm936-980c1 325-119 535-423 540-155 2-268-75-281-212h-92l72-302c-1 199 70 334 254 334 192 0 261-149 260-360 0-220-64-380-260-380-184 0-255 136-254 334l-72-302h82c18-136 132-214 291-212 308 6 424 227 423 560" id="Y"/><path fill="#767676" d="M1064-530c0 326-153 549-464 550-310-1-464-224-464-550 0-327 154-549 464-550 311 1 464 223 464 550zm-708 0c-1 200 66 360 244 360s245-161 244-360c1-201-65-360-244-360S355-730 356-530" id="Z"/><g id="k"><use transform="matrix(0.011284722222222222,0,0,0.011284722222222222,0,0)" xlink:href="#N"/><use transform="matrix(0.011284722222222222,0,0,0.011284722222222222,13.541666666666666,0)" xlink:href="#M"/><use transform="matrix(0.011284722222222222,0,0,0.011284722222222222,27.083333333333332,0)" xlink:href="#Y"/><use transform="matrix(0.011284722222222222,0,0,0.011284722222222222,40.625,0)" xlink:href="#Z"/><use transform="matrix(0.011284722222222222,0,0,0.011284722222222222,54.166666666666664,0)" xlink:href="#N"/><use transform="matrix(0.011284722222222222,0,0,0.011284722222222222,67.70833333333333,0)" xlink:href="#T"/></g><path fill="#767676" d="M564 0v-1000h212V0H564zM160 0v-186h424V0H160zm596 0v-186h346V0H756zM220-874v-186h556v186H220zm591-502c0 79-68 148-148 148-79 0-148-69-148-148 0-80 69-148 148-148 80 0 148 68 148 148" id="aa"/><g id="l"><use transform="matrix(0.011284722222222222,0,0,0.011284722222222222,0,0)" xlink:href="#T"/><use transform="matrix(0.011284722222222222,0,0,0.011284722222222222,13.541666666666666,0)" xlink:href="#aa"/><use transform="matrix(0.011284722222222222,0,0,0.011284722222222222,27.083333333333332,0)" xlink:href="#S"/><use transform="matrix(0.011284722222222222,0,0,0.011284722222222222,40.625,0)" xlink:href="#M"/></g><path fill="#767676" d="M1099-600c0 398-248 624-652 620-101 0-192-9-284-20l82-194c64 33 153 33 244 34 262 1 403-171 400-440 2-177-77-299-244-300-180 0-270 101-270 304l-62-272h82c10-141 97-212 260-212 289-1 444 184 444 480zM163 0v-1500h212V-18" id="ab"/><path fill="#767676" d="M1074-22C971 6 883 20 758 20c-264-4-348-143-348-420v-1100h212v1090c-4 166 46 246 216 240 55 0 126-13 212-38zM98-1314v-186h330v186H98" id="ac"/><g id="m"><use transform="matrix(0.011284722222222222,0,0,0.011284722222222222,0,0)" xlink:href="#T"/><use transform="matrix(0.011284722222222222,0,0,0.011284722222222222,13.541666666666666,0)" xlink:href="#P"/><use transform="matrix(0.011284722222222222,0,0,0.011284722222222222,27.083333333333332,0)" xlink:href="#ab"/><use transform="matrix(0.011284722222222222,0,0,0.011284722222222222,40.625,0)" xlink:href="#ac"/><use transform="matrix(0.011284722222222222,0,0,0.011284722222222222,54.166666666666664,0)" xlink:href="#M"/></g><path fill="#767676" d="M430-592c306 2 383-189 422-468h220c-28 221-90 385-188 494S651-402 480-402H310v-190h120zM160 0v-1500h212V0H160zm718 0L576-516l200-82L1140 0H878" id="ad"/><g id="n"><use transform="matrix(0.011284722222222222,0,0,0.011284722222222222,0,0)" xlink:href="#ab"/><use transform="matrix(0.011284722222222222,0,0,0.011284722222222222,13.541666666666666,0)" xlink:href="#Z"/><use transform="matrix(0.011284722222222222,0,0,0.011284722222222222,27.083333333333332,0)" xlink:href="#Z"/><use transform="matrix(0.011284722222222222,0,0,0.011284722222222222,40.625,0)" xlink:href="#ad"/><use transform="matrix(0.011284722222222222,0,0,0.011284722222222222,54.166666666666664,0)" xlink:href="#aa"/><use transform="matrix(0.011284722222222222,0,0,0.011284722222222222,67.70833333333333,0)" xlink:href="#Q"/><use transform="matrix(0.011284722222222222,0,0,0.011284722222222222,81.25,0)" xlink:href="#R"/></g><path fill="#767676" d="M726-1256c-281 4-426 226-426 534 0 372 161 558 482 558 97 0 192-20 286-60l46 176C998-3 876 20 748 20 307 20 86-224 86-712c0-438 216-728 638-728 188-1 348 62 415 179l-148 147c-52-80-143-140-265-142" id="ae"/><path fill="#767676" d="M680-1080c231-1 352 153 352 390V0H820v-690c2-128-66-210-190-210-167 0-250 101-250 304l-62-272h82c14-150 111-212 280-212zM168 0v-1500h212V0H168" id="af"/><path fill="#767676" d="M1042-10C941 13 821 19 702 20c-357 2-566-196-566-552 0-343 194-551 538-548 203-1 362 80 423 220L934-737c-52-86-142-151-268-153-206 0-318 135-316 348-1 240 136 373 376 372 102 0 203-11 292-26" id="ag"/><g id="o"><use transform="matrix(0.011284722222222222,0,0,0.011284722222222222,0,0)" xlink:href="#ae"/><use transform="matrix(0.011284722222222222,0,0,0.011284722222222222,13.541666666666666,0)" xlink:href="#af"/><use transform="matrix(0.011284722222222222,0,0,0.011284722222222222,27.083333333333332,0)" xlink:href="#M"/><use transform="matrix(0.011284722222222222,0,0,0.011284722222222222,40.625,0)" xlink:href="#ag"/><use transform="matrix(0.011284722222222222,0,0,0.011284722222222222,54.166666666666664,0)" xlink:href="#ad"/></g><g id="p"><use transform="matrix(0.011284722222222222,0,0,0.011284722222222222,0,0)" xlink:href="#T"/><use transform="matrix(0.011284722222222222,0,0,0.011284722222222222,13.541666666666666,0)" xlink:href="#N"/><use transform="matrix(0.011284722222222222,0,0,0.011284722222222222,27.083333333333332,0)" xlink:href="#P"/><use transform="matrix(0.011284722222222222,0,0,0.011284722222222222,40.625,0)" xlink:href="#Q"/><use transform="matrix(0.011284722222222222,0,0,0.011284722222222222,54.166666666666664,0)" xlink:href="#L"/><use transform="matrix(0.011284722222222222,0,0,0.011284722222222222,67.70833333333333,0)" xlink:href="#Z"/><use transform="matrix(0.011284722222222222,0,0,0.011284722222222222,81.25,0)" xlink:href="#Y"/><use transform="matrix(0.011284722222222222,0,0,0.011284722222222222,94.79166666666667,0)" xlink:href="#N"/><use transform="matrix(0.011284722222222222,0,0,0.011284722222222222,108.33333333333336,0)" xlink:href="#T"/></g><path fill="#767676" d="M800-192C787-55 674 22 519 20 216 16 95-195 96-520c-1-333 116-554 423-560 154-2 265 77 281 212h82l-62 302c1-199-70-334-254-334-196 0-260 161-260 380 0 212 68 360 260 360 184 0 255-136 254-334l72 302h-92zm42 202l-22-208v-1302h212V0" id="ah"/><g id="q"><use transform="matrix(0.011284722222222222,0,0,0.011284722222222222,0,0)" xlink:href="#ah"/><use transform="matrix(0.011284722222222222,0,0,0.011284722222222222,13.541666666666666,0)" xlink:href="#M"/><use transform="matrix(0.011284722222222222,0,0,0.011284722222222222,27.083333333333332,0)" xlink:href="#T"/><use transform="matrix(0.011284722222222222,0,0,0.011284722222222222,40.625,0)" xlink:href="#P"/><use transform="matrix(0.011284722222222222,0,0,0.011284722222222222,54.166666666666664,0)" xlink:href="#aa"/><use transform="matrix(0.011284722222222222,0,0,0.011284722222222222,67.70833333333333,0)" xlink:href="#ac"/><use transform="matrix(0.011284722222222222,0,0,0.011284722222222222,81.25,0)" xlink:href="#L"/></g><g id="r"><use transform="matrix(0.010850694444444444,0,0,0.010850694444444444,0,0)" xlink:href="#U"/><use transform="matrix(0.010850694444444444,0,0,0.010850694444444444,13.020833333333332,0)" xlink:href="#B"/><use transform="matrix(0.010850694444444444,0,0,0.010850694444444444,26.041666666666664,0)" xlink:href="#C"/><use transform="matrix(0.010850694444444444,0,0,0.010850694444444444,39.0625,0)" xlink:href="#D"/><use transform="matrix(0.010850694444444444,0,0,0.010850694444444444,52.08333333333333,0)" xlink:href="#E"/><use transform="matrix(0.010850694444444444,0,0,0.010850694444444444,65.10416666666666,0)" xlink:href="#F"/><use transform="matrix(0.010850694444444444,0,0,0.010850694444444444,78.12499999999999,0)" xlink:href="#G"/><use transform="matrix(0.010850694444444444,0,0,0.010850694444444444,91.14583333333331,0)" xlink:href="#B"/><use transform="matrix(0.010850694444444444,0,0,0.010850694444444444,104.16666666666664,0)" xlink:href="#A"/></g><path fill="#3a414a" d="M800-192C787-55 674 22 519 20 216 16 95-195 96-520c-1-333 116-554 423-560 154-2 265 77 281 212h82l-62 302c1-199-70-334-254-334-196 0-260 161-260 380 0 212 68 360 260 360 184 0 255-136 254-334l72 302h-92zm42 202l-22-208v-1302h212V0" id="ai"/><g id="s"><use transform="matrix(0.010850694444444444,0,0,0.010850694444444444,0,0)" xlink:href="#J"/><use transform="matrix(0.010850694444444444,0,0,0.010850694444444444,13.020833333333332,0)" xlink:href="#G"/><use transform="matrix(0.010850694444444444,0,0,0.010850694444444444,26.041666666666664,0)" xlink:href="#ai"/><use transform="matrix(0.010850694444444444,0,0,0.010850694444444444,39.0625,0)" xlink:href="#I"/></g><path fill="#3a414a" d="M1134-390C1135-135 967 0 704 0H354v-190h292c163 2 277-76 278-230-1-161-120-235-292-235H358l-24-91h348c263-3 449 110 452 356zM160 0v-1420h208V0H160zm126-698v-98h408v98H286zm748-362c0 220-187 306-430 306H354v-91h232c140 1 238-62 238-195-2-135-106-190-252-190H358l-24-190h248c265-2 452 111 452 360" id="aj"/><path fill="#3a414a" d="M430-592c306 2 383-189 422-468h220c-28 221-90 385-188 494S651-402 480-402H310v-190h120zM160 0v-1500h212V0H160zm718 0L576-516l200-82L1140 0H878" id="ak"/><g id="t"><use transform="matrix(0.010850694444444444,0,0,0.010850694444444444,0,0)" xlink:href="#aj"/><use transform="matrix(0.010850694444444444,0,0,0.010850694444444444,13.020833333333332,0)" xlink:href="#G"/><use transform="matrix(0.010850694444444444,0,0,0.010850694444444444,26.041666666666664,0)" xlink:href="#G"/><use transform="matrix(0.010850694444444444,0,0,0.010850694444444444,39.0625,0)" xlink:href="#ak"/><use transform="matrix(0.010850694444444444,0,0,0.010850694444444444,52.08333333333333,0)" xlink:href="#y"/><use transform="matrix(0.010850694444444444,0,0,0.010850694444444444,65.10416666666666,0)" xlink:href="#D"/><use transform="matrix(0.010850694444444444,0,0,0.010850694444444444,78.12499999999999,0)" xlink:href="#V"/></g></defs></g></svg>