<svg xmlns="http://www.w3.org/2000/svg" xmlns:xlink="http://www.w3.org/1999/xlink" xmlns:lucid="lucid" width="1420" height="864.14"><g transform="translate(-120 -355.8593749999997)" lucid:page-tab-id="0_0"><path d="M0 0h1870.87v1322.84H0z" fill="#fff"/><path d="M220 519v-93a6 6 0 0 1 6-6h858a6 6 0 0 1 6 6v77.12" stroke="#3a414a" fill="none"/><path d="M220.5 519.5h-1v-.5h1z" stroke="#3a414a" stroke-width=".05" fill="#3a414a"/><path d="M1090 517.88l-4.63-14.26h9.27z" stroke="#3a414a" fill="#3a414a"/><path d="M500 381.86a6 6 0 0 1 6-6h148a6 6 0 0 1 6 6v75.47a6 6 0 0 1-6 6H506a6 6 0 0 1-6-6z" stroke="#3a414a" fill="#fff"/><use xlink:href="#a" transform="matrix(1,0,0,1,505,380.8593749999997) translate(9.895833333333343 23.053819444444443)"/><use xlink:href="#b" transform="matrix(1,0,0,1,505,380.8593749999997) translate(101.04166666666666 23.053819444444443)"/><use xlink:href="#c" transform="matrix(1,0,0,1,505,380.8593749999997) translate(3.3854166666666714 48.878472222222214)"/><use xlink:href="#d" transform="matrix(1,0,0,1,505,380.8593749999997) translate(48.958333333333336 74.703125)"/><path d="M301 600h302.12" stroke="#3a414a" fill="none"/><path d="M301 600.5h-.5v-1h.5z" stroke="#3a414a" stroke-width=".05" fill="#3a414a"/><path d="M617.88 600l-14.26 4.63v-9.26z" stroke="#3a414a" fill="#3a414a"/><path d="M140 526a6 6 0 0 1 6-6h148a6 6 0 0 1 6 6v148a6 6 0 0 1-6 6H146a6 6 0 0 1-6-6z" stroke="#3a414a" fill="#fff"/><use xlink:href="#e" transform="matrix(1,0,0,1,145,524.9999999999999) translate(48.958333333333336 81.55381944444444)"/><path d="M620 526a6 6 0 0 1 6-6h148a6 6 0 0 1 6 6v148a6 6 0 0 1-6 6H626a6 6 0 0 1-6-6z" stroke="#3a414a" fill="#fff"/><use xlink:href="#f" transform="matrix(1,0,0,1,625,524.9999999999999) translate(16.406250000000014 67.49131944444444)"/><use xlink:href="#g" transform="matrix(1,0,0,1,625,524.9999999999999) translate(35.93750000000001 93.31597222222221)"/><path d="M1010 806a6 6 0 0 1 6-6h148a6 6 0 0 1 6 6v148a6 6 0 0 1-6 6h-148a6 6 0 0 1-6-6z" stroke="#3a414a" fill="#fff"/><use xlink:href="#h" transform="matrix(1,0,0,1,1015,805) translate(35.93750000000001 58.11631944444444)"/><use xlink:href="#i" transform="matrix(1,0,0,1,1015,805) translate(29.427083333333343 83.94097222222221)"/><use xlink:href="#g" transform="matrix(1,0,0,1,1015,805) translate(35.93750000000001 109.76562499999999)"/><path d="M1360 526a6 6 0 0 1 6-6h148a6 6 0 0 1 6 6v148a6 6 0 0 1-6 6h-148a6 6 0 0 1-6-6z" stroke="#3a414a" fill="#fff"/><use xlink:href="#j" transform="matrix(1,0,0,1,1365,525) translate(22.91666666666668 67.49131944444444)"/><use xlink:href="#g" transform="matrix(1,0,0,1,1365,525) translate(35.93750000000001 93.31597222222221)"/><path d="M1010 526a6 6 0 0 1 6-6h148a6 6 0 0 1 6 6v148a6 6 0 0 1-6 6h-148a6 6 0 0 1-6-6z" stroke="#3a414a" fill="#fff"/><use xlink:href="#k" transform="matrix(1,0,0,1,1015,524.9999999999999) translate(22.91666666666668 81.55381944444444)"/><path d="M1220 1046a6 6 0 0 1 6-6h148a6 6 0 0 1 6 6v148a6 6 0 0 1-6 6h-148a6 6 0 0 1-6-6z" stroke="#3a414a" fill="#fff"/><use xlink:href="#l" transform="matrix(1,0,0,1,1225,1045) translate(29.427083333333343 67.49131944444444)"/><use xlink:href="#g" transform="matrix(1,0,0,1,1225,1045) translate(35.93750000000001 93.31597222222221)"/><path d="M380 574.33a6 6 0 0 1 6-6h148a6 6 0 0 1 6 6v51.34a6 6 0 0 1-6 6H386a6 6 0 0 1-6-6z" stroke="#3a414a" fill="#fff"/><use xlink:href="#m" transform="matrix(1,0,0,1,385,573.3333333333333) translate(22.91666666666668 23.991319444444443)"/><use xlink:href="#n" transform="matrix(1,0,0,1,385,573.3333333333333) translate(48.958333333333336 49.815972222222214)"/><path d="M781 600h212.12" stroke="#3a414a" fill="none"/><path d="M781 600.5h-.5v-1h.5z" stroke="#3a414a" stroke-width=".05" fill="#3a414a"/><path d="M1007.88 600l-14.26 4.63v-9.26z" stroke="#3a414a" fill="#3a414a"/><path d="M1186.88 600H1359" stroke="#3a414a" fill="none"/><path d="M1172.12 600l14.26-4.63v9.26z" stroke="#3a414a" fill="#3a414a"/><path d="M1359.5 600.5h-.5v-1h.5z" stroke="#3a414a" stroke-width=".05" fill="#3a414a"/><path d="M700 681v193a6 6 0 0 0 6 6h287.12" stroke="#3a414a" fill="none"/><path d="M700.5 681h-1v-.5h1z" stroke="#3a414a" stroke-width=".05" fill="#3a414a"/><path d="M1007.88 880l-14.26 4.63v-9.26z" stroke="#3a414a" fill="#3a414a"/><path d="M1171 880h263a6 6 0 0 0 6-6V696.88" stroke="#3a414a" fill="none"/><path d="M1171 880.5h-.5v-1h.5z" stroke="#3a414a" stroke-width=".05" fill="#3a414a"/><path d="M1440 682.12l4.63 14.26h-9.27z" stroke="#3a414a" fill="#3a414a"/><path d="M1090 961v153a6 6 0 0 0 6 6h107.12" stroke="#3a414a" fill="none"/><path d="M1090.5 961h-1v-.5h1z" stroke="#3a414a" stroke-width=".05" fill="#3a414a"/><path d="M1217.88 1120l-14.26 4.63v-9.27z" stroke="#3a414a" fill="#3a414a"/><path d="M1360 742.67a6 6 0 0 1 6-6h148a6 6 0 0 1 6 6V794a6 6 0 0 1-6 6h-148a6 6 0 0 1-6-6z" stroke="#3a414a" fill="#fff"/><use xlink:href="#o" transform="matrix(1,0,0,1,1365,741.6666666666667) translate(48.958333333333336 34.11631944444444)"/><path d="M1010 1006a6 6 0 0 1 6-6h148a6 6 0 0 1 6 6v51.33a6 6 0 0 1-6 6h-148a6 6 0 0 1-6-6z" stroke="#3a414a" fill="#fff"/><use xlink:href="#h" transform="matrix(1,0,0,1,1015,1005) translate(35.93750000000001 23.991319444444443)"/><use xlink:href="#p" transform="matrix(1,0,0,1,1015,1005) translate(29.427083333333343 49.815972222222214)"/><path d="M1240 854.33a6 6 0 0 1 6-6h148a6 6 0 0 1 6 6v51.34a6 6 0 0 1-6 6h-148a6 6 0 0 1-6-6z" stroke="#3a414a" fill="#fff"/><use xlink:href="#h" transform="matrix(1,0,0,1,1245,853.3333333333333) translate(35.93750000000001 23.991319444444443)"/><use xlink:href="#q" transform="matrix(1,0,0,1,1245,853.3333333333333) translate(16.406250000000014 49.815972222222214)"/><path d="M620 742.67a6 6 0 0 1 6-6h148a6 6 0 0 1 6 6V794a6 6 0 0 1-6 6H626a6 6 0 0 1-6-6z" stroke="#3a414a" fill="#fff"/><use xlink:href="#o" transform="matrix(1,0,0,1,625,741.6666666666667) translate(48.958333333333336 34.11631944444444)"/><path d="M1090 799V696.88" stroke="#3a414a" fill="none"/><path d="M1090.5 799.5h-1v-.5h1z" stroke="#3a414a" stroke-width=".05" fill="#3a414a"/><path d="M1090 682.12l4.63 14.26h-9.27z" stroke="#3a414a" fill="#3a414a"/><path d="M619 768.33H226a6 6 0 0 1-6-6v-65.45" stroke="#3a414a" fill="none"/><path d="M619.5 768.83h-.5v-1h.5z" stroke="#3a414a" stroke-width=".05" fill="#3a414a"/><path d="M220 682.12l4.63 14.26h-9.26z" stroke="#3a414a" fill="#3a414a"/><path d="M1440 519v-91.4a6 6 0 0 0-6-6h-327.62" stroke="#3a414a" fill="none"/><path d="M1440.5 519.5h-1v-.5h1z" stroke="#3a414a" stroke-width=".05" fill="#3a414a"/><path d="M1091.62 421.6l14.26-4.64v9.28z" stroke="#3a414a" fill="#3a414a"/><path d="M1009 1031.67H226a6 6 0 0 1-6-6V784.72" stroke="#3a414a" fill="none"/><path d="M1009.5 1032.17h-.5v-1h.5z" stroke="#3a414a" stroke-width=".05" fill="#3a414a"/><path d="M220 769.95l4.63 14.27h-9.26z" stroke="#3a414a" fill="#3a414a"/><defs><path fill="#3a414a" d="M994-876c-155-17-412-26-522 16-53 20-80 54-80 100 6 78 60 82 134 104 229 69 521 71 518 350 0 114-42 196-125 248S702 20 518 20c-146 0-251-6-362-30l24-192c169 29 429 50 572 0 74-26 93-117 46-172-17-16-43-26-78-36-152-41-380-81-474-161-49-39-74-99-74-179 0-116 47-196 134-252 124-80 489-95 710-58" id="r"/><path fill="#3a414a" d="M1064-530c0 326-153 549-464 550-310-1-464-224-464-550 0-327 154-549 464-550 311 1 464 223 464 550zm-708 0c-1 200 66 360 244 360s245-161 244-360c1-201-65-360-244-360S355-730 356-530" id="s"/><path fill="#3a414a" d="M774-204C745-71 650 19 496 20c-227 1-350-147-350-380v-700h212v700c-1 122 75 191 198 190 180-7 234-116 234-320l54 286h-70zm34 214c-11-142-22-283-18-440h212v238l146 22V0zm-18-310v-760h212v700" id="t"/><path fill="#3a414a" d="M942-682c-2-136-26-213-146-218-90 0-158 39-202 116s-66 186-66 328l-62-332h82c12-195 109-292 292-292 241 0 310 139 312 398H942zM80 0v-186h708V0H80zm236 0v-1060h172l40 304V0H316zM120-874v-186h354l20 186H120" id="u"/><path fill="#3a414a" d="M1042-10C941 13 821 19 702 20c-357 2-566-196-566-552 0-343 194-551 538-548 203-1 362 80 423 220L934-737c-52-86-142-151-268-153-206 0-318 135-316 348-1 240 136 373 376 372 102 0 203-11 292-26" id="v"/><path fill="#3a414a" d="M1002-8C898 13 800 19 692 20c-357 2-566-196-566-552 0-328 162-548 478-548 347 0 489 269 444 644H304v-162h558c3-178-87-295-256-296-193 2-286 146-284 352-1 247 146 377 394 376 95 0 177-12 260-28" id="w"/><g id="a"><use transform="matrix(0.010850694444444444,0,0,0.010850694444444444,0,0)" xlink:href="#r"/><use transform="matrix(0.010850694444444444,0,0,0.010850694444444444,13.020833333333332,0)" xlink:href="#s"/><use transform="matrix(0.010850694444444444,0,0,0.010850694444444444,26.041666666666664,0)" xlink:href="#t"/><use transform="matrix(0.010850694444444444,0,0,0.010850694444444444,39.0625,0)" xlink:href="#u"/><use transform="matrix(0.010850694444444444,0,0,0.010850694444444444,52.08333333333333,0)" xlink:href="#v"/><use transform="matrix(0.010850694444444444,0,0,0.010850694444444444,65.10416666666666,0)" xlink:href="#w"/></g><path fill="#3a414a" d="M818 10l-14-314-28-88c-12-161 36-360-74-430-98-62-314-51-476-60l20-188 214 3c324 4 518 127 518 433v442l180 22V0zm-30-266C784-59 645 18 444 20 234 22 96-84 96-286c5-249 208-350 480-348 120 0 219 13 302 46l-44 144c-84-20-164-19-262-20-184 0-276 56-276 168 1 100 75 147 182 146 169-1 286-79 298-230v-116l62 272h-84" id="x"/><path fill="#3a414a" d="M680-1080c231-1 352 153 352 390V0H820v-690c1-124-68-200-190-200-167 0-250 98-250 294l-62-272h82c14-150 111-212 280-212zM168 0v-1060h192l20 224V0H168" id="y"/><path fill="#3a414a" d="M800-192C787-55 674 22 519 20 216 16 95-195 96-520c-1-333 116-554 423-560 154-2 265 77 281 212h82l-62 302c1-199-70-334-254-334-196 0-260 161-260 380 0 212 68 360 260 360 184 0 255-136 254-334l72 302h-92zm42 202l-22-208v-1302h212V0" id="z"/><g id="b"><use transform="matrix(0.010850694444444444,0,0,0.010850694444444444,0,0)" xlink:href="#x"/><use transform="matrix(0.010850694444444444,0,0,0.010850694444444444,13.020833333333332,0)" xlink:href="#y"/><use transform="matrix(0.010850694444444444,0,0,0.010850694444444444,26.041666666666664,0)" xlink:href="#z"/></g><path fill="#3a414a" d="M1070-4c-92 15-173 24-278 24-314-2-452-115-456-420v-180h212v170c2 176 82 239 264 240 83 0 151-10 234-20zM336-500v-880h212v880H336zM70-874v-186h960v186H70" id="A"/><path fill="#3a414a" d="M564 0v-1000h212V0H564zM160 0v-186h424V0H160zm596 0v-186h346V0H756zM220-874v-186h556v186H220zm591-502c0 79-68 148-148 148-79 0-148-69-148-148 0-80 69-148 148-148 80 0 148 68 148 148" id="B"/><g id="c"><use transform="matrix(0.010850694444444444,0,0,0.010850694444444444,0,0)" xlink:href="#z"/><use transform="matrix(0.010850694444444444,0,0,0.010850694444444444,13.020833333333332,0)" xlink:href="#w"/><use transform="matrix(0.010850694444444444,0,0,0.010850694444444444,26.041666666666664,0)" xlink:href="#r"/><use transform="matrix(0.010850694444444444,0,0,0.010850694444444444,39.0625,0)" xlink:href="#A"/><use transform="matrix(0.010850694444444444,0,0,0.010850694444444444,52.08333333333333,0)" xlink:href="#B"/><use transform="matrix(0.010850694444444444,0,0,0.010850694444444444,65.10416666666666,0)" xlink:href="#y"/><use transform="matrix(0.010850694444444444,0,0,0.010850694444444444,78.12499999999999,0)" xlink:href="#x"/><use transform="matrix(0.010850694444444444,0,0,0.010850694444444444,91.14583333333331,0)" xlink:href="#A"/><use transform="matrix(0.010850694444444444,0,0,0.010850694444444444,104.16666666666664,0)" xlink:href="#B"/><use transform="matrix(0.010850694444444444,0,0,0.010850694444444444,117.18749999999997,0)" xlink:href="#s"/><use transform="matrix(0.010850694444444444,0,0,0.010850694444444444,130.20833333333331,0)" xlink:href="#y"/></g><path fill="#3a414a" d="M1102-1316c-74-9-129-14-204-14-189 0-284 117-284 350V0H402v-970c0-367 167-550 502-550 76 0 149 7 220 20zM68-640v-186h980v186H68" id="C"/><g id="d"><use transform="matrix(0.010850694444444444,0,0,0.010850694444444444,0,0)" xlink:href="#B"/><use transform="matrix(0.010850694444444444,0,0,0.010850694444444444,13.020833333333332,0)" xlink:href="#y"/><use transform="matrix(0.010850694444444444,0,0,0.010850694444444444,26.041666666666664,0)" xlink:href="#C"/><use transform="matrix(0.010850694444444444,0,0,0.010850694444444444,39.0625,0)" xlink:href="#s"/></g><path fill="#3a414a" d="M1060-456c1 313-156 476-464 476-304 0-456-159-456-476v-964h208v964c1 183 72 285 252 286 168 0 252-95 252-286v-964h208v964" id="D"/><g id="e"><use transform="matrix(0.010850694444444444,0,0,0.010850694444444444,0,0)" xlink:href="#D"/><use transform="matrix(0.010850694444444444,0,0,0.010850694444444444,13.020833333333332,0)" xlink:href="#r"/><use transform="matrix(0.010850694444444444,0,0,0.010850694444444444,26.041666666666664,0)" xlink:href="#w"/><use transform="matrix(0.010850694444444444,0,0,0.010850694444444444,39.0625,0)" xlink:href="#u"/></g><path fill="#3a414a" d="M496 0v-1420h208V0H496zM80-1230v-190h1040v190H80" id="E"/><path fill="#3a414a" d="M878-1080c158 3 209 84 210 250V0H876v-810c0-73-27-110-82-110-69 0-104 48-104 144l-72-152h82c8-87 74-156 178-152zM112 0v-1060h188l24 224V0H112zm400-1080c124 3 178 92 178 230V0H510v-830c0-60-28-90-84-90-68 0-102 48-102 144l-62-152h68c8-101 69-152 182-152" id="F"/><path fill="#3a414a" d="M1099-600c0 398-248 624-652 620-101 0-192-9-284-20l82-194c64 33 153 33 244 34 262 1 403-171 400-440 2-177-77-299-244-300-180 0-270 101-270 304l-62-272h82c10-141 97-212 260-212 289-1 444 184 444 480zM163 0v-1500h212V-18" id="G"/><path fill="#3a414a" d="M1074-22C971 6 883 20 758 20c-264-4-348-143-348-420v-1100h212v1090c-4 166 46 246 216 240 55 0 126-13 212-38zM98-1314v-186h330v186H98" id="H"/><g id="f"><use transform="matrix(0.010850694444444444,0,0,0.010850694444444444,0,0)" xlink:href="#E"/><use transform="matrix(0.010850694444444444,0,0,0.010850694444444444,13.020833333333332,0)" xlink:href="#B"/><use transform="matrix(0.010850694444444444,0,0,0.010850694444444444,26.041666666666664,0)" xlink:href="#F"/><use transform="matrix(0.010850694444444444,0,0,0.010850694444444444,39.0625,0)" xlink:href="#w"/><use transform="matrix(0.010850694444444444,0,0,0.010850694444444444,52.08333333333333,0)" xlink:href="#A"/><use transform="matrix(0.010850694444444444,0,0,0.010850694444444444,65.10416666666666,0)" xlink:href="#x"/><use transform="matrix(0.010850694444444444,0,0,0.010850694444444444,78.12499999999999,0)" xlink:href="#G"/><use transform="matrix(0.010850694444444444,0,0,0.010850694444444444,91.14583333333331,0)" xlink:href="#w"/><use transform="matrix(0.010850694444444444,0,0,0.010850694444444444,104.16666666666664,0)" xlink:href="#H"/></g><path fill="#3a414a" d="M75 480L65 290c125-16 260-21 345-77 118-74 173-194 221-357l264-916h220L809-94c-98 302-212 514-554 554zM477 0L55-1060h220l346 900h32V0H477" id="I"/><g id="g"><use transform="matrix(0.010850694444444444,0,0,0.010850694444444444,0,0)" xlink:href="#r"/><use transform="matrix(0.010850694444444444,0,0,0.010850694444444444,13.020833333333332,0)" xlink:href="#I"/><use transform="matrix(0.010850694444444444,0,0,0.010850694444444444,26.041666666666664,0)" xlink:href="#r"/><use transform="matrix(0.010850694444444444,0,0,0.010850694444444444,39.0625,0)" xlink:href="#A"/><use transform="matrix(0.010850694444444444,0,0,0.010850694444444444,52.08333333333333,0)" xlink:href="#w"/><use transform="matrix(0.010850694444444444,0,0,0.010850694444444444,65.10416666666666,0)" xlink:href="#F"/></g><path fill="#3a414a" d="M430-592c306 2 383-189 422-468h220c-28 221-90 385-188 494S651-402 480-402H310v-190h120zM160 0v-1500h212V0H160zm718 0L576-516l200-82L1140 0H878" id="J"/><g id="h"><use transform="matrix(0.010850694444444444,0,0,0.010850694444444444,0,0)" xlink:href="#E"/><use transform="matrix(0.010850694444444444,0,0,0.010850694444444444,13.020833333333332,0)" xlink:href="#B"/><use transform="matrix(0.010850694444444444,0,0,0.010850694444444444,26.041666666666664,0)" xlink:href="#v"/><use transform="matrix(0.010850694444444444,0,0,0.010850694444444444,39.0625,0)" xlink:href="#J"/><use transform="matrix(0.010850694444444444,0,0,0.010850694444444444,52.08333333333333,0)" xlink:href="#w"/><use transform="matrix(0.010850694444444444,0,0,0.010850694444444444,65.10416666666666,0)" xlink:href="#A"/></g><path fill="#3a414a" d="M182 478l-10-194c205-16 477 24 574-99 46-58 73-138 74-247v-774l20-224h192v966c-3 384-165 548-540 562zm618-670C787-55 674 22 519 20 216 16 95-195 96-520c-1-333 116-554 423-560 158-2 274 75 291 212h82l-72 302c1-199-70-334-254-334-196 0-260 161-260 380 0 212 68 360 260 360 184 0 255-136 254-334l72 302h-92" id="K"/><g id="i"><use transform="matrix(0.010850694444444444,0,0,0.010850694444444444,0,0)" xlink:href="#G"/><use transform="matrix(0.010850694444444444,0,0,0.010850694444444444,13.020833333333332,0)" xlink:href="#s"/><use transform="matrix(0.010850694444444444,0,0,0.010850694444444444,26.041666666666664,0)" xlink:href="#s"/><use transform="matrix(0.010850694444444444,0,0,0.010850694444444444,39.0625,0)" xlink:href="#J"/><use transform="matrix(0.010850694444444444,0,0,0.010850694444444444,52.08333333333333,0)" xlink:href="#B"/><use transform="matrix(0.010850694444444444,0,0,0.010850694444444444,65.10416666666666,0)" xlink:href="#y"/><use transform="matrix(0.010850694444444444,0,0,0.010850694444444444,78.12499999999999,0)" xlink:href="#K"/></g><g id="j"><use transform="matrix(0.010850694444444444,0,0,0.010850694444444444,0,0)" xlink:href="#E"/><use transform="matrix(0.010850694444444444,0,0,0.010850694444444444,13.020833333333332,0)" xlink:href="#u"/><use transform="matrix(0.010850694444444444,0,0,0.010850694444444444,26.041666666666664,0)" xlink:href="#x"/><use transform="matrix(0.010850694444444444,0,0,0.010850694444444444,39.0625,0)" xlink:href="#v"/><use transform="matrix(0.010850694444444444,0,0,0.010850694444444444,52.08333333333333,0)" xlink:href="#J"/><use transform="matrix(0.010850694444444444,0,0,0.010850694444444444,65.10416666666666,0)" xlink:href="#B"/><use transform="matrix(0.010850694444444444,0,0,0.010850694444444444,78.12499999999999,0)" xlink:href="#y"/><use transform="matrix(0.010850694444444444,0,0,0.010850694444444444,91.14583333333331,0)" xlink:href="#K"/></g><path fill="#3a414a" d="M924-690c1-336-124-535-440-540H338l-24-190h170c433 0 650 243 650 730C1134-230 917 0 484 0H334v-190h150c306-2 441-182 440-500zM140 0v-1420h208V0H140" id="L"/><g id="k"><use transform="matrix(0.010850694444444444,0,0,0.010850694444444444,0,0)" xlink:href="#L"/><use transform="matrix(0.010850694444444444,0,0,0.010850694444444444,13.020833333333332,0)" xlink:href="#x"/><use transform="matrix(0.010850694444444444,0,0,0.010850694444444444,26.041666666666664,0)" xlink:href="#A"/><use transform="matrix(0.010850694444444444,0,0,0.010850694444444444,39.0625,0)" xlink:href="#x"/><use transform="matrix(0.010850694444444444,0,0,0.010850694444444444,52.08333333333333,0)" xlink:href="#G"/><use transform="matrix(0.010850694444444444,0,0,0.010850694444444444,65.10416666666666,0)" xlink:href="#x"/><use transform="matrix(0.010850694444444444,0,0,0.010850694444444444,78.12499999999999,0)" xlink:href="#r"/><use transform="matrix(0.010850694444444444,0,0,0.010850694444444444,91.14583333333331,0)" xlink:href="#w"/></g><path fill="#3a414a" d="M1120-950c0 341-195 511-542 510H344v-190h234c215 1 332-108 332-320-1-195-127-280-332-280H348v-190h230c338-2 540 145 542 470zM160 0v-1420h208V0H160" id="M"/><g id="l"><use transform="matrix(0.010850694444444444,0,0,0.010850694444444444,0,0)" xlink:href="#M"/><use transform="matrix(0.010850694444444444,0,0,0.010850694444444444,13.020833333333332,0)" xlink:href="#x"/><use transform="matrix(0.010850694444444444,0,0,0.010850694444444444,26.041666666666664,0)" xlink:href="#I"/><use transform="matrix(0.010850694444444444,0,0,0.010850694444444444,39.0625,0)" xlink:href="#F"/><use transform="matrix(0.010850694444444444,0,0,0.010850694444444444,52.08333333333333,0)" xlink:href="#w"/><use transform="matrix(0.010850694444444444,0,0,0.010850694444444444,65.10416666666666,0)" xlink:href="#y"/><use transform="matrix(0.010850694444444444,0,0,0.010850694444444444,78.12499999999999,0)" xlink:href="#A"/></g><path fill="#3a414a" d="M45 0l410-1420h290L1155 0H945L609-1248h-18L255 0H45zm190-346v-190h720v190H235" id="N"/><path fill="#3a414a" d="M459 0L80-1060h226l285 880h18l285-880h226L741 0H459" id="O"/><g id="m"><use transform="matrix(0.010850694444444444,0,0,0.010850694444444444,0,0)" xlink:href="#N"/><use transform="matrix(0.010850694444444444,0,0,0.010850694444444444,13.020833333333332,0)" xlink:href="#O"/><use transform="matrix(0.010850694444444444,0,0,0.010850694444444444,26.041666666666664,0)" xlink:href="#x"/><use transform="matrix(0.010850694444444444,0,0,0.010850694444444444,39.0625,0)" xlink:href="#B"/><use transform="matrix(0.010850694444444444,0,0,0.010850694444444444,52.08333333333333,0)" xlink:href="#x"/><use transform="matrix(0.010850694444444444,0,0,0.010850694444444444,65.10416666666666,0)" xlink:href="#G"/><use transform="matrix(0.010850694444444444,0,0,0.010850694444444444,78.12499999999999,0)" xlink:href="#H"/><use transform="matrix(0.010850694444444444,0,0,0.010850694444444444,91.14583333333331,0)" xlink:href="#w"/></g><g id="n"><use transform="matrix(0.010850694444444444,0,0,0.010850694444444444,0,0)" xlink:href="#F"/><use transform="matrix(0.010850694444444444,0,0,0.010850694444444444,13.020833333333332,0)" xlink:href="#s"/><use transform="matrix(0.010850694444444444,0,0,0.010850694444444444,26.041666666666664,0)" xlink:href="#z"/><use transform="matrix(0.010850694444444444,0,0,0.010850694444444444,39.0625,0)" xlink:href="#w"/></g><g id="o"><use transform="matrix(0.010850694444444444,0,0,0.010850694444444444,0,0)" xlink:href="#z"/><use transform="matrix(0.010850694444444444,0,0,0.010850694444444444,13.020833333333332,0)" xlink:href="#x"/><use transform="matrix(0.010850694444444444,0,0,0.010850694444444444,26.041666666666664,0)" xlink:href="#A"/><use transform="matrix(0.010850694444444444,0,0,0.010850694444444444,39.0625,0)" xlink:href="#x"/></g><g id="p"><use transform="matrix(0.010850694444444444,0,0,0.010850694444444444,0,0)" xlink:href="#M"/><use transform="matrix(0.010850694444444444,0,0,0.010850694444444444,13.020833333333332,0)" xlink:href="#x"/><use transform="matrix(0.010850694444444444,0,0,0.010850694444444444,26.041666666666664,0)" xlink:href="#I"/><use transform="matrix(0.010850694444444444,0,0,0.010850694444444444,39.0625,0)" xlink:href="#F"/><use transform="matrix(0.010850694444444444,0,0,0.010850694444444444,52.08333333333333,0)" xlink:href="#w"/><use transform="matrix(0.010850694444444444,0,0,0.010850694444444444,65.10416666666666,0)" xlink:href="#y"/><use transform="matrix(0.010850694444444444,0,0,0.010850694444444444,78.12499999999999,0)" xlink:href="#A"/></g><g id="q"><use transform="matrix(0.010850694444444444,0,0,0.010850694444444444,0,0)" xlink:href="#v"/><use transform="matrix(0.010850694444444444,0,0,0.010850694444444444,13.020833333333332,0)" xlink:href="#s"/><use transform="matrix(0.010850694444444444,0,0,0.010850694444444444,26.041666666666664,0)" xlink:href="#y"/><use transform="matrix(0.010850694444444444,0,0,0.010850694444444444,39.0625,0)" xlink:href="#C"/><use transform="matrix(0.010850694444444444,0,0,0.010850694444444444,52.08333333333333,0)" xlink:href="#B"/><use transform="matrix(0.010850694444444444,0,0,0.010850694444444444,65.10416666666666,0)" xlink:href="#u"/><use transform="matrix(0.010850694444444444,0,0,0.010850694444444444,78.12499999999999,0)" xlink:href="#F"/><use transform="matrix(0.010850694444444444,0,0,0.010850694444444444,91.14583333333331,0)" xlink:href="#w"/><use transform="matrix(0.010850694444444444,0,0,0.010850694444444444,104.16666666666664,0)" xlink:href="#z"/></g></defs></g></svg>